STARTFONT 2.1
COMMENT This font was automatically resized by bdfresize-1.5
COMMENT   mag_x = 7/2, mag_y = 7/2, blackness = 4
COMMENT MZ-700 ASCII font
COMMENT 8x8 dot bitmap font
COMMENT not resize. original size.
FONT -Mz700bdfascii-Fixed-Medium-R-Normal--28-280-75-75-M-280-ISO10646-1
SIZE 28 75 75
FONTBOUNDINGBOX 28 28 0 0
STARTPROPERTIES 19
FONT_ASCENT 28
FONT_DESCENT 0
DEFAULT_CHAR 32
COPYRIGHT "Unknown"
FONTNAME_REGISTRY ""
FOUNDRY "Mz700bdfascii"
FAMILY_NAME "Fixed"
WEIGHT_NAME "Medium"
SLANT "R"
SETWIDTH_NAME "Normal"
ADD_STYLE_NAME ""
PIXEL_SIZE 28
POINT_SIZE 280
RESOLUTION_X 75
RESOLUTION_Y 75
SPACING "M"
AVERAGE_WIDTH 280
CHARSET_REGISTRY "ISO10646"
CHARSET_ENCODING "1"
ENDPROPERTIES
CHARS 344
STARTCHAR 20
ENCODING 32
SWIDTH 3360 0
DWIDTH 28 0
BBX 28 28 0 0
BITMAP
00000000
00000000
00000000
00000000
00000000
00000000
00000000
00000000
00000000
00000000
00000000
00000000
00000000
00000000
00000000
00000000
00000000
00000000
00000000
00000000
00000000
00000000
00000000
00000000
00000000
00000000
00000000
00000000
ENDCHAR
STARTCHAR 21
ENCODING 33
SWIDTH 3360 0
DWIDTH 28 0
BBX 28 28 0 0
BITMAP
0003C000
0003C000
0003C000
0003C000
0003C000
0003C000
0003C000
0003C000
0003C000
0003C000
0003C000
0003C000
0003C000
0003C000
00000000
00000000
00000000
00000000
00000000
00000000
00000000
0003C000
0003C000
0003C000
0003C000
00000000
00000000
00000000
ENDCHAR
STARTCHAR 22
ENCODING 34
SWIDTH 3360 0
DWIDTH 28 0
BBX 28 28 0 0
BITMAP
01E07800
01E07800
01E07800
01E07800
01E07800
01E07800
01E07800
01E07800
01E07800
01E07800
01E07800
00000000
00000000
00000000
00000000
00000000
00000000
00000000
00000000
00000000
00000000
00000000
00000000
00000000
00000000
00000000
00000000
00000000
ENDCHAR
STARTCHAR 23
ENCODING 35
SWIDTH 3360 0
DWIDTH 28 0
BBX 28 28 0 0
BITMAP
01E07800
01E07800
01E07800
01E07800
01E07800
01E07800
01E07800
1FFFFF80
1FFFFF80
1FFFFF80
1FFFFF80
01E07800
01E07800
01E07800
1FFFFF80
1FFFFF80
1FFFFF80
1FFFFF80
01E07800
01E07800
01E07800
01E07800
01E07800
01E07800
01E07800
00000000
00000000
00000000
ENDCHAR
STARTCHAR 24
ENCODING 36
SWIDTH 3360 0
DWIDTH 28 0
BBX 28 28 0 0
BITMAP
0003C000
0003C000
0003C000
003FFF80
003FFF80
003FFF80
003FFF80
01E3C000
01E3C000
01E3C000
01FFF800
003FF800
003FF800
003FF800
0003C780
0003C780
0003C780
01FFFF80
01FFF800
01FFF800
01FFF800
0003C000
0003C000
0003C000
0003C000
00000000
00000000
00000000
ENDCHAR
STARTCHAR 25
ENCODING 37
SWIDTH 3360 0
DWIDTH 28 0
BBX 28 28 0 0
BITMAP
00000000
00000000
00000000
1FE00780
1FE00780
1FE00780
1FE00780
1FE07800
1FE07800
1FE07800
1FE3F800
0003C000
0003C000
0003C000
003C0000
003C0000
003C0000
01FC7F80
01E07F80
01E07F80
01E07F80
1E007F80
1E007F80
1E007F80
1E007F80
00000000
00000000
00000000
ENDCHAR
STARTCHAR 26
ENCODING 38
SWIDTH 3360 0
DWIDTH 28 0
BBX 28 28 0 0
BITMAP
01FC0000
01FC0000
01FC0000
1FFFC000
1E03C000
1E03C000
1E03C000
1E03C000
1E03C000
1E03C000
1FFFC000
01FC0000
01FC0000
01FC0000
1E03C780
1E03C780
1E03C780
1E03FF80
1E007800
1E007800
1E007800
01FFC780
01FFC780
01FFC780
01FFC780
00000000
00000000
00000000
ENDCHAR
STARTCHAR 27
ENCODING 39
SWIDTH 3360 0
DWIDTH 28 0
BBX 28 28 0 0
BITMAP
00007800
00007800
00007800
0003F800
0003C000
0003C000
0003C000
003C0000
003C0000
003C0000
003C0000
00000000
00000000
00000000
00000000
00000000
00000000
00000000
00000000
00000000
00000000
00000000
00000000
00000000
00000000
00000000
00000000
00000000
ENDCHAR
STARTCHAR 28
ENCODING 40
SWIDTH 3360 0
DWIDTH 28 0
BBX 28 28 0 0
BITMAP
00007800
00007800
00007800
0003F800
0003C000
0003C000
0003C000
003C0000
003C0000
003C0000
003C0000
003C0000
003C0000
003C0000
003C0000
003C0000
003C0000
003FC000
0003C000
0003C000
0003C000
00007800
00007800
00007800
00007800
00000000
00000000
00000000
ENDCHAR
STARTCHAR 29
ENCODING 41
SWIDTH 3360 0
DWIDTH 28 0
BBX 28 28 0 0
BITMAP
01E00000
01E00000
01E00000
01FC0000
003C0000
003C0000
003C0000
0003C000
0003C000
0003C000
0003C000
0003C000
0003C000
0003C000
0003C000
0003C000
0003C000
003FC000
003C0000
003C0000
003C0000
01E00000
01E00000
01E00000
01E00000
00000000
00000000
00000000
ENDCHAR
STARTCHAR 2a
ENCODING 42
SWIDTH 3360 0
DWIDTH 28 0
BBX 28 28 0 0
BITMAP
0003C000
0003C000
0003C000
01E3C780
01E3C780
01E3C780
01E3C780
003FF800
003FF800
003FF800
01FFFF80
01FFFF80
01FFFF80
01FFFF80
003FF800
003FF800
003FF800
01FFFF80
01E3C780
01E3C780
01E3C780
0003C000
0003C000
0003C000
0003C000
00000000
00000000
00000000
ENDCHAR
STARTCHAR 2b
ENCODING 43
SWIDTH 3360 0
DWIDTH 28 0
BBX 28 28 0 0
BITMAP
00000000
00000000
00000000
0003C000
0003C000
0003C000
0003C000
0003C000
0003C000
0003C000
01FFFF80
01FFFF80
01FFFF80
01FFFF80
0003C000
0003C000
0003C000
0003C000
0003C000
0003C000
0003C000
00000000
00000000
00000000
00000000
00000000
00000000
00000000
ENDCHAR
STARTCHAR 2c
ENCODING 44
SWIDTH 3360 0
DWIDTH 28 0
BBX 28 28 0 0
BITMAP
00000000
00000000
00000000
00000000
00000000
00000000
00000000
00000000
00000000
00000000
00000000
00000000
00000000
00000000
00000000
00000000
00000000
0003C000
0003C000
0003C000
0003C000
0003C000
0003C000
0003C000
003FC000
003C0000
003C0000
003C0000
ENDCHAR
STARTCHAR 2d
ENCODING 45
SWIDTH 3360 0
DWIDTH 28 0
BBX 28 28 0 0
BITMAP
00000000
00000000
00000000
00000000
00000000
00000000
00000000
00000000
00000000
00000000
1FFFFF80
1FFFFF80
1FFFFF80
1FFFFF80
00000000
00000000
00000000
00000000
00000000
00000000
00000000
00000000
00000000
00000000
00000000
00000000
00000000
00000000
ENDCHAR
STARTCHAR 2e
ENCODING 46
SWIDTH 3360 0
DWIDTH 28 0
BBX 28 28 0 0
BITMAP
00000000
00000000
00000000
00000000
00000000
00000000
00000000
00000000
00000000
00000000
00000000
00000000
00000000
00000000
00000000
00000000
00000000
003FC000
003FC000
003FC000
003FC000
003FC000
003FC000
003FC000
003FC000
00000000
00000000
00000000
ENDCHAR
STARTCHAR 2f
ENCODING 47
SWIDTH 3360 0
DWIDTH 28 0
BBX 28 28 0 0
BITMAP
00000000
00000000
00000000
00000780
00000780
00000780
00000780
00007800
00007800
00007800
0003F800
0003C000
0003C000
0003C000
003C0000
003C0000
003C0000
01FC0000
01E00000
01E00000
01E00000
1E000000
1E000000
1E000000
1E000000
00000000
00000000
00000000
ENDCHAR
STARTCHAR 30
ENCODING 48
SWIDTH 3360 0
DWIDTH 28 0
BBX 28 28 0 0
BITMAP
01FFF800
01FFF800
01FFF800
1FFFFF80
1E000780
1E000780
1E000780
1E007F80
1E007F80
1E007F80
1E3FFF80
1E3FC780
1E3FC780
1E3FC780
1FE00780
1FE00780
1FE00780
1FE00780
1E000780
1E000780
1E000780
01FFF800
01FFF800
01FFF800
01FFF800
00000000
00000000
00000000
ENDCHAR
STARTCHAR 31
ENCODING 49
SWIDTH 3360 0
DWIDTH 28 0
BBX 28 28 0 0
BITMAP
0003C000
0003C000
0003C000
003FC000
003FC000
003FC000
003FC000
01E3C000
01E3C000
01E3C000
01E3C000
0003C000
0003C000
0003C000
0003C000
0003C000
0003C000
0003C000
0003C000
0003C000
0003C000
01FFFF80
01FFFF80
01FFFF80
01FFFF80
00000000
00000000
00000000
ENDCHAR
STARTCHAR 32
ENCODING 50
SWIDTH 3360 0
DWIDTH 28 0
BBX 28 28 0 0
BITMAP
01FFF800
01FFF800
01FFF800
1FFFFF80
1E000780
1E000780
1E000780
00000780
00000780
00000780
0003FF80
0003F800
0003F800
0003F800
01FC0000
01FC0000
01FC0000
1FFC0000
1E000000
1E000000
1E000000
1FFFFF80
1FFFFF80
1FFFFF80
1FFFFF80
00000000
00000000
00000000
ENDCHAR
STARTCHAR 33
ENCODING 51
SWIDTH 3360 0
DWIDTH 28 0
BBX 28 28 0 0
BITMAP
01FFF800
01FFF800
01FFF800
1FFFFF80
1E000780
1E000780
1E000780
00000780
00000780
00000780
01FFFF80
01FFF800
01FFF800
01FFF800
00000780
00000780
00000780
1E000780
1E000780
1E000780
1E000780
01FFF800
01FFF800
01FFF800
01FFF800
00000000
00000000
00000000
ENDCHAR
STARTCHAR 34
ENCODING 52
SWIDTH 3360 0
DWIDTH 28 0
BBX 28 28 0 0
BITMAP
00007800
00007800
00007800
0003F800
0003F800
0003F800
0003F800
003C7800
003C7800
003C7800
01FC7800
01E07800
01E07800
01E07800
1FFFFF80
1FFFFF80
1FFFFF80
1FFFFF80
00007800
00007800
00007800
00007800
00007800
00007800
00007800
00000000
00000000
00000000
ENDCHAR
STARTCHAR 35
ENCODING 53
SWIDTH 3360 0
DWIDTH 28 0
BBX 28 28 0 0
BITMAP
1FFFFF80
1FFFFF80
1FFFFF80
1FFFFF80
1E000000
1E000000
1E000000
1FFFC000
1FFFC000
1FFFC000
1FFFF800
00007800
00007800
00007800
00000780
00000780
00000780
1E007F80
1E007800
1E007800
1E007800
01FFC000
01FFC000
01FFC000
01FFC000
00000000
00000000
00000000
ENDCHAR
STARTCHAR 36
ENCODING 54
SWIDTH 3360 0
DWIDTH 28 0
BBX 28 28 0 0
BITMAP
003FF800
003FF800
003FF800
01FFF800
01E00000
01E00000
01E00000
1E000000
1E000000
1E000000
1FFFF800
1FFFF800
1FFFF800
1FFFF800
1E000780
1E000780
1E000780
1E000780
1E000780
1E000780
1E000780
01FFF800
01FFF800
01FFF800
01FFF800
00000000
00000000
00000000
ENDCHAR
STARTCHAR 37
ENCODING 55
SWIDTH 3360 0
DWIDTH 28 0
BBX 28 28 0 0
BITMAP
1FFFFF80
1FFFFF80
1FFFFF80
1FFFFF80
1E000780
1E000780
1E000780
00007800
00007800
00007800
0003F800
0003C000
0003C000
0003C000
003C0000
003C0000
003C0000
003C0000
003C0000
003C0000
003C0000
003C0000
003C0000
003C0000
003C0000
00000000
00000000
00000000
ENDCHAR
STARTCHAR 38
ENCODING 56
SWIDTH 3360 0
DWIDTH 28 0
BBX 28 28 0 0
BITMAP
01FFF800
01FFF800
01FFF800
1FFFFF80
1E000780
1E000780
1E000780
1E000780
1E000780
1E000780
1FFFFF80
01FFF800
01FFF800
01FFF800
1E000780
1E000780
1E000780
1E000780
1E000780
1E000780
1E000780
01FFF800
01FFF800
01FFF800
01FFF800
00000000
00000000
00000000
ENDCHAR
STARTCHAR 39
ENCODING 57
SWIDTH 3360 0
DWIDTH 28 0
BBX 28 28 0 0
BITMAP
01FFF800
01FFF800
01FFF800
1FFFFF80
1E000780
1E000780
1E000780
1E000780
1E000780
1E000780
1FFFFF80
01FFFF80
01FFFF80
01FFFF80
00000780
00000780
00000780
00007F80
00007800
00007800
00007800
01FFC000
01FFC000
01FFC000
01FFC000
00000000
00000000
00000000
ENDCHAR
STARTCHAR 3a
ENCODING 58
SWIDTH 3360 0
DWIDTH 28 0
BBX 28 28 0 0
BITMAP
00000000
00000000
00000000
00000000
00000000
00000000
00000000
0003C000
0003C000
0003C000
0003C000
00000000
00000000
00000000
00000000
00000000
00000000
0003C000
0003C000
0003C000
0003C000
00000000
00000000
00000000
00000000
00000000
00000000
00000000
ENDCHAR
STARTCHAR 3b
ENCODING 59
SWIDTH 3360 0
DWIDTH 28 0
BBX 28 28 0 0
BITMAP
00000000
00000000
00000000
00000000
00000000
00000000
00000000
0003C000
0003C000
0003C000
0003C000
00000000
00000000
00000000
00000000
00000000
00000000
0003C000
0003C000
0003C000
0003C000
0003C000
0003C000
0003C000
003FC000
003C0000
003C0000
003C0000
ENDCHAR
STARTCHAR 3c
ENCODING 60
SWIDTH 3360 0
DWIDTH 28 0
BBX 28 28 0 0
BITMAP
0003FF80
0003FF80
0003FF80
003FFF80
003FC000
003FC000
003FC000
01FC0000
01FC0000
01FC0000
1FFC0000
1FE00000
1FE00000
1FE00000
01FC0000
01FC0000
01FC0000
01FFC000
003FC000
003FC000
003FC000
0003FF80
0003FF80
0003FF80
0003FF80
00000000
00000000
00000000
ENDCHAR
STARTCHAR 3d
ENCODING 61
SWIDTH 3360 0
DWIDTH 28 0
BBX 28 28 0 0
BITMAP
00000000
00000000
00000000
00000000
00000000
00000000
00000000
1FFFFF80
1FFFFF80
1FFFFF80
1FFFFF80
00000000
00000000
00000000
1FFFFF80
1FFFFF80
1FFFFF80
1FFFFF80
00000000
00000000
00000000
00000000
00000000
00000000
00000000
00000000
00000000
00000000
ENDCHAR
STARTCHAR 3e
ENCODING 62
SWIDTH 3360 0
DWIDTH 28 0
BBX 28 28 0 0
BITMAP
1FFC0000
1FFC0000
1FFC0000
1FFFC000
003FC000
003FC000
003FC000
0003F800
0003F800
0003F800
0003FF80
00007F80
00007F80
00007F80
0003F800
0003F800
0003F800
003FF800
003FC000
003FC000
003FC000
1FFC0000
1FFC0000
1FFC0000
1FFC0000
00000000
00000000
00000000
ENDCHAR
STARTCHAR 3f
ENCODING 63
SWIDTH 3360 0
DWIDTH 28 0
BBX 28 28 0 0
BITMAP
01FFF800
01FFF800
01FFF800
1FFFFF80
1E000780
1E000780
1E000780
00000780
00000780
00000780
0003FF80
0003F800
0003F800
0003F800
003C0000
003C0000
003C0000
003C0000
00000000
00000000
00000000
003C0000
003C0000
003C0000
003C0000
00000000
00000000
00000000
ENDCHAR
STARTCHAR 40
ENCODING 64
SWIDTH 3360 0
DWIDTH 28 0
BBX 28 28 0 0
BITMAP
003FF800
003FF800
003FF800
01FFFF80
01E00780
01E00780
01E00780
1E03C780
1E03C780
1E03C780
1E3FFF80
1E3C7F80
1E3C7F80
1E3C7F80
1E03F800
1E03F800
1E03F800
1FE3F800
01E00000
01E00000
01E00000
003FFF80
003FFF80
003FFF80
003FFF80
00000000
00000000
00000000
ENDCHAR
STARTCHAR 41
ENCODING 65
SWIDTH 3360 0
DWIDTH 28 0
BBX 28 28 0 0
BITMAP
003FC000
003FC000
003FC000
01FFF800
01E07800
01E07800
01E07800
1E000780
1E000780
1E000780
1FFFFF80
1FFFFF80
1FFFFF80
1FFFFF80
1E000780
1E000780
1E000780
1E000780
1E000780
1E000780
1E000780
1E000780
1E000780
1E000780
1E000780
00000000
00000000
00000000
ENDCHAR
STARTCHAR 42
ENCODING 66
SWIDTH 3360 0
DWIDTH 28 0
BBX 28 28 0 0
BITMAP
1FFFF800
1FFFF800
1FFFF800
1FFFFF80
01E00780
01E00780
01E00780
01E00780
01E00780
01E00780
01FFFF80
01FFF800
01FFF800
01FFF800
01E00780
01E00780
01E00780
01E00780
01E00780
01E00780
01E00780
1FFFF800
1FFFF800
1FFFF800
1FFFF800
00000000
00000000
00000000
ENDCHAR
STARTCHAR 43
ENCODING 67
SWIDTH 3360 0
DWIDTH 28 0
BBX 28 28 0 0
BITMAP
003FF800
003FF800
003FF800
01FFFF80
01E00780
01E00780
01E00780
1E000000
1E000000
1E000000
1E000000
1E000000
1E000000
1E000000
1E000000
1E000000
1E000000
1FE00780
01E00780
01E00780
01E00780
003FF800
003FF800
003FF800
003FF800
00000000
00000000
00000000
ENDCHAR
STARTCHAR 44
ENCODING 68
SWIDTH 3360 0
DWIDTH 28 0
BBX 28 28 0 0
BITMAP
1FFFC000
1FFFC000
1FFFC000
1FFFF800
01E07800
01E07800
01E07800
01E00780
01E00780
01E00780
01E00780
01E00780
01E00780
01E00780
01E00780
01E00780
01E00780
01E07F80
01E07800
01E07800
01E07800
1FFFC000
1FFFC000
1FFFC000
1FFFC000
00000000
00000000
00000000
ENDCHAR
STARTCHAR 45
ENCODING 69
SWIDTH 3360 0
DWIDTH 28 0
BBX 28 28 0 0
BITMAP
1FFFFF80
1FFFFF80
1FFFFF80
1FFFFF80
1E000000
1E000000
1E000000
1E000000
1E000000
1E000000
1FFFC000
1FFFC000
1FFFC000
1FFFC000
1E000000
1E000000
1E000000
1E000000
1E000000
1E000000
1E000000
1FFFFF80
1FFFFF80
1FFFFF80
1FFFFF80
00000000
00000000
00000000
ENDCHAR
STARTCHAR 46
ENCODING 70
SWIDTH 3360 0
DWIDTH 28 0
BBX 28 28 0 0
BITMAP
1FFFFF80
1FFFFF80
1FFFFF80
1FFFFF80
1E000000
1E000000
1E000000
1E000000
1E000000
1E000000
1FFFC000
1FFFC000
1FFFC000
1FFFC000
1E000000
1E000000
1E000000
1E000000
1E000000
1E000000
1E000000
1E000000
1E000000
1E000000
1E000000
00000000
00000000
00000000
ENDCHAR
STARTCHAR 47
ENCODING 71
SWIDTH 3360 0
DWIDTH 28 0
BBX 28 28 0 0
BITMAP
003FF800
003FF800
003FF800
01FFFF80
01E00780
01E00780
01E00780
1E000000
1E000000
1E000000
1E03FF80
1E03FF80
1E03FF80
1E03FF80
1E000780
1E000780
1E000780
1FE00780
01E00780
01E00780
01E00780
003FF800
003FF800
003FF800
003FF800
00000000
00000000
00000000
ENDCHAR
STARTCHAR 48
ENCODING 72
SWIDTH 3360 0
DWIDTH 28 0
BBX 28 28 0 0
BITMAP
1E000780
1E000780
1E000780
1E000780
1E000780
1E000780
1E000780
1E000780
1E000780
1E000780
1FFFFF80
1FFFFF80
1FFFFF80
1FFFFF80
1E000780
1E000780
1E000780
1E000780
1E000780
1E000780
1E000780
1E000780
1E000780
1E000780
1E000780
00000000
00000000
00000000
ENDCHAR
STARTCHAR 49
ENCODING 73
SWIDTH 3360 0
DWIDTH 28 0
BBX 28 28 0 0
BITMAP
003FF800
003FF800
003FF800
003FF800
0003C000
0003C000
0003C000
0003C000
0003C000
0003C000
0003C000
0003C000
0003C000
0003C000
0003C000
0003C000
0003C000
0003C000
0003C000
0003C000
0003C000
003FF800
003FF800
003FF800
003FF800
00000000
00000000
00000000
ENDCHAR
STARTCHAR 4a
ENCODING 74
SWIDTH 3360 0
DWIDTH 28 0
BBX 28 28 0 0
BITMAP
0003FF80
0003FF80
0003FF80
0003FF80
00007800
00007800
00007800
00007800
00007800
00007800
00007800
00007800
00007800
00007800
00007800
00007800
00007800
1E007800
1E007800
1E007800
1E007800
01FFC000
01FFC000
01FFC000
01FFC000
00000000
00000000
00000000
ENDCHAR
STARTCHAR 4b
ENCODING 75
SWIDTH 3360 0
DWIDTH 28 0
BBX 28 28 0 0
BITMAP
1E000780
1E000780
1E000780
1E007F80
1E007800
1E007800
1E007800
1E03C000
1E03C000
1E03C000
1FFFC000
1FFC0000
1FFC0000
1FFC0000
1E03C000
1E03C000
1E03C000
1E03F800
1E007800
1E007800
1E007800
1E000780
1E000780
1E000780
1E000780
00000000
00000000
00000000
ENDCHAR
STARTCHAR 4c
ENCODING 76
SWIDTH 3360 0
DWIDTH 28 0
BBX 28 28 0 0
BITMAP
1E000000
1E000000
1E000000
1E000000
1E000000
1E000000
1E000000
1E000000
1E000000
1E000000
1E000000
1E000000
1E000000
1E000000
1E000000
1E000000
1E000000
1E000000
1E000000
1E000000
1E000000
1FFFFF80
1FFFFF80
1FFFFF80
1FFFFF80
00000000
00000000
00000000
ENDCHAR
STARTCHAR 4d
ENCODING 77
SWIDTH 3360 0
DWIDTH 28 0
BBX 28 28 0 0
BITMAP
1E000780
1E000780
1E000780
1FE07F80
1FE07F80
1FE07F80
1FE07F80
1E3FC780
1E3FC780
1E3FC780
1E3FC780
1E3FC780
1E3FC780
1E3FC780
1E000780
1E000780
1E000780
1E000780
1E000780
1E000780
1E000780
1E000780
1E000780
1E000780
1E000780
00000000
00000000
00000000
ENDCHAR
STARTCHAR 4e
ENCODING 78
SWIDTH 3360 0
DWIDTH 28 0
BBX 28 28 0 0
BITMAP
1E000780
1E000780
1E000780
1FE00780
1FE00780
1FE00780
1FE00780
1E3C0780
1E3C0780
1E3C0780
1E3FC780
1E03C780
1E03C780
1E03C780
1E007F80
1E007F80
1E007F80
1E007F80
1E000780
1E000780
1E000780
1E000780
1E000780
1E000780
1E000780
00000000
00000000
00000000
ENDCHAR
STARTCHAR 4f
ENCODING 79
SWIDTH 3360 0
DWIDTH 28 0
BBX 28 28 0 0
BITMAP
003FC000
003FC000
003FC000
01FFF800
01E07800
01E07800
01E07800
1E000780
1E000780
1E000780
1E000780
1E000780
1E000780
1E000780
1E000780
1E000780
1E000780
1FE07F80
01E07800
01E07800
01E07800
003FC000
003FC000
003FC000
003FC000
00000000
00000000
00000000
ENDCHAR
STARTCHAR 50
ENCODING 80
SWIDTH 3360 0
DWIDTH 28 0
BBX 28 28 0 0
BITMAP
1FFFF800
1FFFF800
1FFFF800
1FFFFF80
1E000780
1E000780
1E000780
1E000780
1E000780
1E000780
1FFFFF80
1FFFF800
1FFFF800
1FFFF800
1E000000
1E000000
1E000000
1E000000
1E000000
1E000000
1E000000
1E000000
1E000000
1E000000
1E000000
00000000
00000000
00000000
ENDCHAR
STARTCHAR 51
ENCODING 81
SWIDTH 3360 0
DWIDTH 28 0
BBX 28 28 0 0
BITMAP
003FC000
003FC000
003FC000
01FFF800
01E07800
01E07800
01E07800
1E000780
1E000780
1E000780
1E000780
1E000780
1E000780
1E000780
1E03C780
1E03C780
1E03C780
1FE3FF80
01E07800
01E07800
01E07800
003FC780
003FC780
003FC780
003FC780
00000000
00000000
00000000
ENDCHAR
STARTCHAR 52
ENCODING 82
SWIDTH 3360 0
DWIDTH 28 0
BBX 28 28 0 0
BITMAP
1FFFF800
1FFFF800
1FFFF800
1FFFFF80
1E000780
1E000780
1E000780
1E000780
1E000780
1E000780
1FFFFF80
1FFFF800
1FFFF800
1FFFF800
1E03C000
1E03C000
1E03C000
1E03F800
1E007800
1E007800
1E007800
1E000780
1E000780
1E000780
1E000780
00000000
00000000
00000000
ENDCHAR
STARTCHAR 53
ENCODING 83
SWIDTH 3360 0
DWIDTH 28 0
BBX 28 28 0 0
BITMAP
01FFF800
01FFF800
01FFF800
1FFFFF80
1E000780
1E000780
1E000780
1E000000
1E000000
1E000000
1FFFF800
01FFF800
01FFF800
01FFF800
00000780
00000780
00000780
1E000780
1E000780
1E000780
1E000780
01FFF800
01FFF800
01FFF800
01FFF800
00000000
00000000
00000000
ENDCHAR
STARTCHAR 54
ENCODING 84
SWIDTH 3360 0
DWIDTH 28 0
BBX 28 28 0 0
BITMAP
01FFFF80
01FFFF80
01FFFF80
01FFFF80
0003C000
0003C000
0003C000
0003C000
0003C000
0003C000
0003C000
0003C000
0003C000
0003C000
0003C000
0003C000
0003C000
0003C000
0003C000
0003C000
0003C000
0003C000
0003C000
0003C000
0003C000
00000000
00000000
00000000
ENDCHAR
STARTCHAR 55
ENCODING 85
SWIDTH 3360 0
DWIDTH 28 0
BBX 28 28 0 0
BITMAP
1E000780
1E000780
1E000780
1E000780
1E000780
1E000780
1E000780
1E000780
1E000780
1E000780
1E000780
1E000780
1E000780
1E000780
1E000780
1E000780
1E000780
1E000780
1E000780
1E000780
1E000780
01FFF800
01FFF800
01FFF800
01FFF800
00000000
00000000
00000000
ENDCHAR
STARTCHAR 56
ENCODING 86
SWIDTH 3360 0
DWIDTH 28 0
BBX 28 28 0 0
BITMAP
1E000780
1E000780
1E000780
1E000780
1E000780
1E000780
1E000780
1E000780
1E000780
1E000780
1FE07F80
01E07800
01E07800
01E07800
01E07800
01E07800
01E07800
01FFF800
003FC000
003FC000
003FC000
003FC000
003FC000
003FC000
003FC000
00000000
00000000
00000000
ENDCHAR
STARTCHAR 57
ENCODING 87
SWIDTH 3360 0
DWIDTH 28 0
BBX 28 28 0 0
BITMAP
1E000780
1E000780
1E000780
1E000780
1E000780
1E000780
1E000780
1E000780
1E000780
1E000780
1E3FC780
1E3FC780
1E3FC780
1E3FC780
1E3FC780
1E3FC780
1E3FC780
1FFFFF80
1FE07F80
1FE07F80
1FE07F80
1E000780
1E000780
1E000780
1E000780
00000000
00000000
00000000
ENDCHAR
STARTCHAR 58
ENCODING 88
SWIDTH 3360 0
DWIDTH 28 0
BBX 28 28 0 0
BITMAP
1E000780
1E000780
1E000780
1E000780
1E000780
1E000780
1E000780
01E07800
01E07800
01E07800
01FFF800
003FC000
003FC000
003FC000
01E07800
01E07800
01E07800
1FE07F80
1E000780
1E000780
1E000780
1E000780
1E000780
1E000780
1E000780
00000000
00000000
00000000
ENDCHAR
STARTCHAR 59
ENCODING 89
SWIDTH 3360 0
DWIDTH 28 0
BBX 28 28 0 0
BITMAP
01E00780
01E00780
01E00780
01E00780
01E00780
01E00780
01E00780
01E00780
01E00780
01E00780
01FFFF80
003FF800
003FF800
003FF800
0003C000
0003C000
0003C000
0003C000
0003C000
0003C000
0003C000
0003C000
0003C000
0003C000
0003C000
00000000
00000000
00000000
ENDCHAR
STARTCHAR 5a
ENCODING 90
SWIDTH 3360 0
DWIDTH 28 0
BBX 28 28 0 0
BITMAP
1FFFFF80
1FFFFF80
1FFFFF80
1FFFFF80
00000780
00000780
00000780
00007800
00007800
00007800
003FF800
003FC000
003FC000
003FC000
01E00000
01E00000
01E00000
1FE00000
1E000000
1E000000
1E000000
1FFFFF80
1FFFFF80
1FFFFF80
1FFFFF80
00000000
00000000
00000000
ENDCHAR
STARTCHAR 5b
ENCODING 91
SWIDTH 3360 0
DWIDTH 28 0
BBX 28 28 0 0
BITMAP
01FFF800
01FFF800
01FFF800
01FFF800
01E00000
01E00000
01E00000
01E00000
01E00000
01E00000
01E00000
01E00000
01E00000
01E00000
01E00000
01E00000
01E00000
01E00000
01E00000
01E00000
01E00000
01FFF800
01FFF800
01FFF800
01FFF800
00000000
00000000
00000000
ENDCHAR
STARTCHAR 5c
ENCODING 92
SWIDTH 3360 0
DWIDTH 28 0
BBX 28 28 0 0
BITMAP
00000000
00000000
00000000
1E000000
1E000000
1E000000
1E000000
01E00000
01E00000
01E00000
01FC0000
003C0000
003C0000
003C0000
0003C000
0003C000
0003C000
0003F800
00007800
00007800
00007800
00000780
00000780
00000780
00000780
00000000
00000000
00000000
ENDCHAR
STARTCHAR 5d
ENCODING 93
SWIDTH 3360 0
DWIDTH 28 0
BBX 28 28 0 0
BITMAP
01FFF800
01FFF800
01FFF800
01FFF800
00007800
00007800
00007800
00007800
00007800
00007800
00007800
00007800
00007800
00007800
00007800
00007800
00007800
00007800
00007800
00007800
00007800
01FFF800
01FFF800
01FFF800
01FFF800
00000000
00000000
00000000
ENDCHAR
STARTCHAR 5f
ENCODING 95
SWIDTH 3360 0
DWIDTH 28 0
BBX 28 28 0 0
BITMAP
00000000
00000000
00000000
00000000
00000000
00000000
00000000
00000000
00000000
00000000
00000000
00000000
00000000
00000000
00000000
00000000
00000000
00000000
00000000
00000000
00000000
00000000
00000000
00000000
FFFFFFF0
FFFFFFF0
FFFFFFF0
FFFFFFF0
ENDCHAR
STARTCHAR 61
ENCODING 97
SWIDTH 3360 0
DWIDTH 28 0
BBX 28 28 0 0
BITMAP
00000000
00000000
00000000
00000000
00000000
00000000
00000000
01FFC000
01FFC000
01FFC000
01FFF800
00007800
00007800
00007800
01FFF800
01FFF800
01FFF800
1FFFF800
1E007800
1E007800
1E007800
01FFC780
01FFC780
01FFC780
01FFC780
00000000
00000000
00000000
ENDCHAR
STARTCHAR 62
ENCODING 98
SWIDTH 3360 0
DWIDTH 28 0
BBX 28 28 0 0
BITMAP
1E000000
1E000000
1E000000
1E000000
1E000000
1E000000
1E000000
1E3FF800
1E3FF800
1E3FF800
1FFFFF80
1FE00780
1FE00780
1FE00780
1E000780
1E000780
1E000780
1FE00780
1FE00780
1FE00780
1FE00780
1E3FF800
1E3FF800
1E3FF800
1E3FF800
00000000
00000000
00000000
ENDCHAR
STARTCHAR 63
ENCODING 99
SWIDTH 3360 0
DWIDTH 28 0
BBX 28 28 0 0
BITMAP
00000000
00000000
00000000
00000000
00000000
00000000
00000000
01FFF800
01FFF800
01FFF800
1FFFFF80
1E000780
1E000780
1E000780
1E000000
1E000000
1E000000
1E000780
1E000780
1E000780
1E000780
01FFF800
01FFF800
01FFF800
01FFF800
00000000
00000000
00000000
ENDCHAR
STARTCHAR 64
ENCODING 100
SWIDTH 3360 0
DWIDTH 28 0
BBX 28 28 0 0
BITMAP
00000780
00000780
00000780
00000780
00000780
00000780
00000780
01FFC780
01FFC780
01FFC780
1FFFFF80
1E007F80
1E007F80
1E007F80
1E000780
1E000780
1E000780
1E007F80
1E007F80
1E007F80
1E007F80
01FFC780
01FFC780
01FFC780
01FFC780
00000000
00000000
00000000
ENDCHAR
STARTCHAR 65
ENCODING 101
SWIDTH 3360 0
DWIDTH 28 0
BBX 28 28 0 0
BITMAP
00000000
00000000
00000000
00000000
00000000
00000000
00000000
01FFF800
01FFF800
01FFF800
1FFFFF80
1E000780
1E000780
1E000780
1FFFFF80
1FFFFF80
1FFFFF80
1FFFFF80
1E000000
1E000000
1E000000
01FFF800
01FFF800
01FFF800
01FFF800
00000000
00000000
00000000
ENDCHAR
STARTCHAR 66
ENCODING 102
SWIDTH 3360 0
DWIDTH 28 0
BBX 28 28 0 0
BITMAP
0003F800
0003F800
0003F800
003FFF80
003C0780
003C0780
003C0780
003C0000
003C0000
003C0000
1FFFF800
1FFFF800
1FFFF800
1FFFF800
003C0000
003C0000
003C0000
003C0000
003C0000
003C0000
003C0000
003C0000
003C0000
003C0000
003C0000
00000000
00000000
00000000
ENDCHAR
STARTCHAR 67
ENCODING 103
SWIDTH 3360 0
DWIDTH 28 0
BBX 28 28 0 0
BITMAP
00000000
00000000
00000000
00000000
00000000
00000000
00000000
01FFC780
01FFC780
01FFC780
1FFFFF80
1E007F80
1E007F80
1E007F80
1E007F80
1E007F80
1E007F80
1FFFFF80
01FFC780
01FFC780
01FFC780
00000780
00000780
00000780
01FFFF80
01FFF800
01FFF800
01FFF800
ENDCHAR
STARTCHAR 68
ENCODING 104
SWIDTH 3360 0
DWIDTH 28 0
BBX 28 28 0 0
BITMAP
1E000000
1E000000
1E000000
1E000000
1E000000
1E000000
1E000000
1E3FF800
1E3FF800
1E3FF800
1FFFFF80
1FE00780
1FE00780
1FE00780
1E000780
1E000780
1E000780
1E000780
1E000780
1E000780
1E000780
1E000780
1E000780
1E000780
1E000780
00000000
00000000
00000000
ENDCHAR
STARTCHAR 69
ENCODING 105
SWIDTH 3360 0
DWIDTH 28 0
BBX 28 28 0 0
BITMAP
0003C000
0003C000
0003C000
0003C000
00000000
00000000
00000000
003FC000
003FC000
003FC000
003FC000
0003C000
0003C000
0003C000
0003C000
0003C000
0003C000
0003C000
0003C000
0003C000
0003C000
003FF800
003FF800
003FF800
003FF800
00000000
00000000
00000000
ENDCHAR
STARTCHAR 6a
ENCODING 106
SWIDTH 3360 0
DWIDTH 28 0
BBX 28 28 0 0
BITMAP
00007800
00007800
00007800
00007800
00000000
00000000
00000000
0003F800
0003F800
0003F800
0003F800
00007800
00007800
00007800
00007800
00007800
00007800
00007800
00007800
00007800
00007800
1E007800
1E007800
1E007800
1FFFF800
01FFC000
01FFC000
01FFC000
ENDCHAR
STARTCHAR 6b
ENCODING 107
SWIDTH 3360 0
DWIDTH 28 0
BBX 28 28 0 0
BITMAP
1E000000
1E000000
1E000000
1E000000
1E000000
1E000000
1E000000
1E007800
1E007800
1E007800
1E03F800
1E03C000
1E03C000
1E03C000
1E3C0000
1E3C0000
1E3C0000
1FFFC000
1FE3C000
1FE3C000
1FE3C000
1E007800
1E007800
1E007800
1E007800
00000000
00000000
00000000
ENDCHAR
STARTCHAR 6c
ENCODING 108
SWIDTH 3360 0
DWIDTH 28 0
BBX 28 28 0 0
BITMAP
003FC000
003FC000
003FC000
003FC000
0003C000
0003C000
0003C000
0003C000
0003C000
0003C000
0003C000
0003C000
0003C000
0003C000
0003C000
0003C000
0003C000
0003C000
0003C000
0003C000
0003C000
003FF800
003FF800
003FF800
003FF800
00000000
00000000
00000000
ENDCHAR
STARTCHAR 6d
ENCODING 109
SWIDTH 3360 0
DWIDTH 28 0
BBX 28 28 0 0
BITMAP
00000000
00000000
00000000
00000000
00000000
00000000
00000000
1FFC7F80
1FFC7F80
1FFC7F80
1FFFFFF0
1E03C0F0
1E03C0F0
1E03C0F0
1E03C0F0
1E03C0F0
1E03C0F0
1E03C0F0
1E03C0F0
1E03C0F0
1E03C0F0
1E03C0F0
1E03C0F0
1E03C0F0
1E03C0F0
00000000
00000000
00000000
ENDCHAR
STARTCHAR 6e
ENCODING 110
SWIDTH 3360 0
DWIDTH 28 0
BBX 28 28 0 0
BITMAP
00000000
00000000
00000000
00000000
00000000
00000000
00000000
1E3FF800
1E3FF800
1E3FF800
1FFFFF80
1FE00780
1FE00780
1FE00780
1E000780
1E000780
1E000780
1E000780
1E000780
1E000780
1E000780
1E000780
1E000780
1E000780
1E000780
00000000
00000000
00000000
ENDCHAR
STARTCHAR 6f
ENCODING 111
SWIDTH 3360 0
DWIDTH 28 0
BBX 28 28 0 0
BITMAP
00000000
00000000
00000000
00000000
00000000
00000000
00000000
01FFF800
01FFF800
01FFF800
1FFFFF80
1E000780
1E000780
1E000780
1E000780
1E000780
1E000780
1E000780
1E000780
1E000780
1E000780
01FFF800
01FFF800
01FFF800
01FFF800
00000000
00000000
00000000
ENDCHAR
STARTCHAR 70
ENCODING 112
SWIDTH 3360 0
DWIDTH 28 0
BBX 28 28 0 0
BITMAP
00000000
00000000
00000000
00000000
00000000
00000000
00000000
1E3FF800
1E3FF800
1E3FF800
1FFFFF80
1FE00780
1FE00780
1FE00780
1FE00780
1FE00780
1FE00780
1FFFFF80
1E3FF800
1E3FF800
1E3FF800
1E000000
1E000000
1E000000
1E000000
1E000000
1E000000
1E000000
ENDCHAR
STARTCHAR 71
ENCODING 113
SWIDTH 3360 0
DWIDTH 28 0
BBX 28 28 0 0
BITMAP
00000000
00000000
00000000
00000000
00000000
00000000
00000000
01FFC780
01FFC780
01FFC780
1FFFFF80
1E007F80
1E007F80
1E007F80
1E007F80
1E007F80
1E007F80
1FFFFF80
01FFC780
01FFC780
01FFC780
00000780
00000780
00000780
00000780
00000780
00000780
00000780
ENDCHAR
STARTCHAR 72
ENCODING 114
SWIDTH 3360 0
DWIDTH 28 0
BBX 28 28 0 0
BITMAP
00000000
00000000
00000000
00000000
00000000
00000000
00000000
1E3FF800
1E3FF800
1E3FF800
1FFFFF80
1FE00780
1FE00780
1FE00780
1E000000
1E000000
1E000000
1E000000
1E000000
1E000000
1E000000
1E000000
1E000000
1E000000
1E000000
00000000
00000000
00000000
ENDCHAR
STARTCHAR 73
ENCODING 115
SWIDTH 3360 0
DWIDTH 28 0
BBX 28 28 0 0
BITMAP
00000000
00000000
00000000
00000000
00000000
00000000
00000000
01FFFF80
01FFFF80
01FFFF80
1FFFFF80
1E000000
1E000000
1E000000
01FFF800
01FFF800
01FFF800
01FFFF80
00000780
00000780
00000780
1FFFF800
1FFFF800
1FFFF800
1FFFF800
00000000
00000000
00000000
ENDCHAR
STARTCHAR 74
ENCODING 116
SWIDTH 3360 0
DWIDTH 28 0
BBX 28 28 0 0
BITMAP
003C0000
003C0000
003C0000
003C0000
003C0000
003C0000
003C0000
1FFFF800
1FFFF800
1FFFF800
1FFFF800
003C0000
003C0000
003C0000
003C0000
003C0000
003C0000
003C0780
003C0780
003C0780
003C0780
0003F800
0003F800
0003F800
0003F800
00000000
00000000
00000000
ENDCHAR
STARTCHAR 75
ENCODING 117
SWIDTH 3360 0
DWIDTH 28 0
BBX 28 28 0 0
BITMAP
00000000
00000000
00000000
00000000
00000000
00000000
00000000
1E000780
1E000780
1E000780
1E000780
1E000780
1E000780
1E000780
1E000780
1E000780
1E000780
1E000780
1E000780
1E000780
1E000780
01FFF800
01FFF800
01FFF800
01FFF800
00000000
00000000
00000000
ENDCHAR
STARTCHAR 76
ENCODING 118
SWIDTH 3360 0
DWIDTH 28 0
BBX 28 28 0 0
BITMAP
00000000
00000000
00000000
00000000
00000000
00000000
00000000
1E000780
1E000780
1E000780
1E000780
1E000780
1E000780
1E000780
1E000780
1E000780
1E000780
1FE07F80
01E07800
01E07800
01E07800
003FC000
003FC000
003FC000
003FC000
00000000
00000000
00000000
ENDCHAR
STARTCHAR 77
ENCODING 119
SWIDTH 3360 0
DWIDTH 28 0
BBX 28 28 0 0
BITMAP
00000000
00000000
00000000
00000000
00000000
00000000
00000000
1E0000F0
1E0000F0
1E0000F0
1E03C0F0
1E03C0F0
1E03C0F0
1E03C0F0
1E03C0F0
1E03C0F0
1E03C0F0
1E03C0F0
1E03C0F0
1E03C0F0
1E03C0F0
01FC7F80
01FC7F80
01FC7F80
01FC7F80
00000000
00000000
00000000
ENDCHAR
STARTCHAR 78
ENCODING 120
SWIDTH 3360 0
DWIDTH 28 0
BBX 28 28 0 0
BITMAP
00000000
00000000
00000000
00000000
00000000
00000000
00000000
1E007800
1E007800
1E007800
1FE3F800
01E3C000
01E3C000
01E3C000
003C0000
003C0000
003C0000
01FFC000
01E3C000
01E3C000
01E3C000
1E007800
1E007800
1E007800
1E007800
00000000
00000000
00000000
ENDCHAR
STARTCHAR 79
ENCODING 121
SWIDTH 3360 0
DWIDTH 28 0
BBX 28 28 0 0
BITMAP
00000000
00000000
00000000
00000000
00000000
00000000
00000000
1E000780
1E000780
1E000780
1E000780
1E000780
1E000780
1E000780
1E007F80
1E007F80
1E007F80
1FFFFF80
01FFC780
01FFC780
01FFC780
00000780
00000780
00000780
01FFFF80
01FFF800
01FFF800
01FFF800
ENDCHAR
STARTCHAR 7a
ENCODING 122
SWIDTH 3360 0
DWIDTH 28 0
BBX 28 28 0 0
BITMAP
00000000
00000000
00000000
00000000
00000000
00000000
00000000
1FFFFF80
1FFFFF80
1FFFFF80
1FFFFF80
00007800
00007800
00007800
003FC000
003FC000
003FC000
01FFC000
01E00000
01E00000
01E00000
1FFFFF80
1FFFFF80
1FFFFF80
1FFFFF80
00000000
00000000
00000000
ENDCHAR
STARTCHAR 7c
ENCODING 124
SWIDTH 3360 0
DWIDTH 28 0
BBX 28 28 0 0
BITMAP
0003C000
0003C000
0003C000
0003C000
0003C000
0003C000
0003C000
0003C000
0003C000
0003C000
0003C000
0003C000
0003C000
0003C000
0003C000
0003C000
0003C000
0003C000
0003C000
0003C000
0003C000
0003C000
0003C000
0003C000
0003C000
0003C000
0003C000
0003C000
ENDCHAR
STARTCHAR 7e
ENCODING 126
SWIDTH 3360 0
DWIDTH 28 0
BBX 28 28 0 0
BITMAP
00000000
00000000
00000000
00000000
00000000
00000000
00000000
01E00000
01E00000
01E00000
1FFC0000
1E3C0000
1E3C0000
1E3C0000
F003C000
F003C000
F003C000
F003F8F0
000078F0
000078F0
000078F0
00000780
00000780
00000780
00000780
00000000
00000000
00000000
ENDCHAR
STARTCHAR d7
ENCODING 215
SWIDTH 3360 0
DWIDTH 28 0
BBX 28 28 0 0
BITMAP
F00000F0
F00000F0
F00000F0
FE0007F0
1E000780
1E000780
1E000780
01E07800
01E07800
01E07800
01FFF800
003FC000
003FC000
003FC000
003FC000
003FC000
003FC000
01FFF800
01E07800
01E07800
01E07800
1E000780
1E000780
1E000780
FE0007F0
F00000F0
F00000F0
F00000F0
ENDCHAR
STARTCHAR 3c0
ENCODING 960
SWIDTH 3360 0
DWIDTH 28 0
BBX 28 28 0 0
BITMAP
00000000
00000000
00000000
00000000
00000000
00000000
00000000
000000F0
000000F0
000000F0
01FFFFF0
01FFFF80
01FFFF80
01FFFF80
1E3C7800
1E3C7800
1E3C7800
1E3C7800
003C7800
003C7800
003C7800
003C7800
003C7800
003C7800
003C7800
00000000
00000000
00000000
ENDCHAR
STARTCHAR 2026
ENCODING 8230
SWIDTH 3360 0
DWIDTH 28 0
BBX 28 28 0 0
BITMAP
00000000
00000000
00000000
00000000
00000000
00000000
00000000
00000000
00000000
00000000
00000000
00000000
00000000
00000000
00000000
00000000
00000000
1FFC0000
1FFC0000
1FFC0000
1FFC0000
1E3C0000
1E3C0000
1E3C0000
1FFC0000
1FFC0000
1FFC0000
1FFC0000
ENDCHAR
STARTCHAR 2190
ENCODING 8592
SWIDTH 3360 0
DWIDTH 28 0
BBX 28 28 0 0
BITMAP
00000000
00000000
00000000
00000000
00000000
00000000
00000000
003C0000
003C0000
003C0000
01FC0000
01E00000
01E00000
01E00000
1FFFFFF0
1FFFFFF0
1FFFFFF0
1FFFFFF0
01E00000
01E00000
01E00000
003C0000
003C0000
003C0000
003C0000
00000000
00000000
00000000
ENDCHAR
STARTCHAR 2191
ENCODING 8593
SWIDTH 3360 0
DWIDTH 28 0
BBX 28 28 0 0
BITMAP
00000000
00000000
00000000
0003C000
0003C000
0003C000
0003C000
003FF800
003FF800
003FF800
01FFFF80
01E3C780
01E3C780
01E3C780
0003C000
0003C000
0003C000
0003C000
0003C000
0003C000
0003C000
0003C000
0003C000
0003C000
0003C000
00000000
00000000
00000000
ENDCHAR
STARTCHAR 2192
ENCODING 8594
SWIDTH 3360 0
DWIDTH 28 0
BBX 28 28 0 0
BITMAP
00000000
00000000
00000000
00000000
00000000
00000000
00000000
0003C000
0003C000
0003C000
0003F800
00007800
00007800
00007800
FFFFFF80
FFFFFF80
FFFFFF80
FFFFFF80
00007800
00007800
00007800
0003C000
0003C000
0003C000
0003C000
00000000
00000000
00000000
ENDCHAR
STARTCHAR 2193
ENCODING 8595
SWIDTH 3360 0
DWIDTH 28 0
BBX 28 28 0 0
BITMAP
00000000
00000000
00000000
0003C000
0003C000
0003C000
0003C000
0003C000
0003C000
0003C000
0003C000
0003C000
0003C000
0003C000
01E3C780
01E3C780
01E3C780
01FFFF80
003FF800
003FF800
003FF800
0003C000
0003C000
0003C000
0003C000
00000000
00000000
00000000
ENDCHAR
STARTCHAR 21bf
ENCODING 8639
SWIDTH 3360 0
DWIDTH 28 0
BBX 28 28 0 0
BITMAP
00000780
00000780
00000780
00000780
00000780
00000780
00000780
00000780
00000780
00000780
00000780
00000780
00000780
00000780
00000780
00000780
00000780
00000780
00000780
00000780
00000780
00007FF0
00007FF0
00007FF0
00007FF0
00000780
00000780
00000780
ENDCHAR
STARTCHAR 21c0
ENCODING 8640
SWIDTH 3360 0
DWIDTH 28 0
BBX 28 28 0 0
BITMAP
00000000
00000000
00000000
00000000
00000000
00000000
00000000
00000000
00000000
00000000
00000000
00000000
00000000
00000000
00000000
00000000
00000000
00000780
00000780
00000780
00000780
FFFFFFF0
FFFFFFF0
FFFFFFF0
FFFFFFF0
00000780
00000780
00000780
ENDCHAR
STARTCHAR 21d6
ENCODING 8662
SWIDTH 3360 0
DWIDTH 28 0
BBX 28 28 0 0
BITMAP
01E00000
01E00000
01E00000
01FC0000
003C0000
003C0000
003C0000
F003C000
F003C000
F003C000
FE03F800
1E007800
1E007800
1E007800
01E00780
01E00780
01E00780
01FC07F0
003C00F0
003C00F0
003C00F0
0003C000
0003C000
0003C000
0003F800
00007800
00007800
00007800
ENDCHAR
STARTCHAR 21d7
ENCODING 8663
SWIDTH 3360 0
DWIDTH 28 0
BBX 28 28 0 0
BITMAP
00007800
00007800
00007800
0003F800
0003C000
0003C000
0003C000
003C00F0
003C00F0
003C00F0
01FC07F0
01E00780
01E00780
01E00780
1E007800
1E007800
1E007800
FE03F800
F003C000
F003C000
F003C000
003C0000
003C0000
003C0000
01FC0000
01E00000
01E00000
01E00000
ENDCHAR
STARTCHAR 21e6
ENCODING 8678
SWIDTH 3360 0
DWIDTH 28 0
BBX 28 28 0 0
BITMAP
FFFFFFF0
FFFFFFF0
FFFFFFF0
FFFFFFF0
FFFFFFF0
FFFFFFF0
FFFFFFF0
FFE3FFF0
FFE3FFF0
FFE3FFF0
FFFFFFF0
FE3FFFF0
FE3FFFF0
FE3FFFF0
F00000F0
F00000F0
F00000F0
FE3FFFF0
FE3FFFF0
FE3FFFF0
FE3FFFF0
FFE3FFF0
FFE3FFF0
FFE3FFF0
FFFFFFF0
FFFFFFF0
FFFFFFF0
FFFFFFF0
ENDCHAR
STARTCHAR 21e7
ENCODING 8679
SWIDTH 3360 0
DWIDTH 28 0
BBX 28 28 0 0
BITMAP
FFFFFFF0
FFFFFFF0
FFFFFFF0
FFFFFFF0
FFFC7FF0
FFFC7FF0
FFFC7FF0
FFE007F0
FFE007F0
FFE007F0
FFFC7FF0
FE3C78F0
FE3C78F0
FE3C78F0
FFFC7FF0
FFFC7FF0
FFFC7FF0
FFFC7FF0
FFFC7FF0
FFFC7FF0
FFFC7FF0
FFFC7FF0
FFFC7FF0
FFFC7FF0
FFFFFFF0
FFFFFFF0
FFFFFFF0
FFFFFFF0
ENDCHAR
STARTCHAR 21e8
ENCODING 8680
SWIDTH 3360 0
DWIDTH 28 0
BBX 28 28 0 0
BITMAP
FFFFFFF0
FFFFFFF0
FFFFFFF0
FFFFFFF0
FFFFFFF0
FFFFFFF0
FFFFFFF0
FFFC7FF0
FFFC7FF0
FFFC7FF0
FFFFFFF0
FFFFC7F0
FFFFC7F0
FFFFC7F0
F00000F0
F00000F0
F00000F0
FFFFC7F0
FFFFC7F0
FFFFC7F0
FFFFC7F0
FFFC7FF0
FFFC7FF0
FFFC7FF0
FFFFFFF0
FFFFFFF0
FFFFFFF0
FFFFFFF0
ENDCHAR
STARTCHAR 21e9
ENCODING 8681
SWIDTH 3360 0
DWIDTH 28 0
BBX 28 28 0 0
BITMAP
FFFFFFF0
FFFFFFF0
FFFFFFF0
FFFFFFF0
FFFC7FF0
FFFC7FF0
FFFC7FF0
FFFC7FF0
FFFC7FF0
FFFC7FF0
FFFC7FF0
FFFC7FF0
FFFC7FF0
FFFC7FF0
FE3C78F0
FE3C78F0
FE3C78F0
FFFC7FF0
FFE007F0
FFE007F0
FFE007F0
FFFC7FF0
FFFC7FF0
FFFC7FF0
FFFFFFF0
FFFFFFF0
FFFFFFF0
FFFFFFF0
ENDCHAR
STARTCHAR 22a5
ENCODING 8869
SWIDTH 3360 0
DWIDTH 28 0
BBX 28 28 0 0
BITMAP
00000780
00000780
00000780
00000780
00000780
00000780
00000780
00000780
00000780
00000780
00000780
00000780
00000780
00000780
00000780
00000780
00000780
00000780
00000780
00000780
00000780
FFFFFFF0
FFFFFFF0
FFFFFFF0
FFFFFFF0
00000780
00000780
00000780
ENDCHAR
STARTCHAR 2460
ENCODING 9312
SWIDTH 3360 0
DWIDTH 28 0
BBX 28 28 0 0
BITMAP
00000000
00000000
00000000
1FFC0000
1FFC0000
1FFC0000
1FFC0000
1FFC0000
1FFC0000
1FFC0000
1FFC0000
1FFC0000
1FFC0000
1FFC0000
00000000
00000000
00000000
00000000
00000000
00000000
00000000
00000000
00000000
00000000
00000000
00000000
00000000
00000000
ENDCHAR
STARTCHAR 2461
ENCODING 9313
SWIDTH 3360 0
DWIDTH 28 0
BBX 28 28 0 0
BITMAP
00000000
00000000
00000000
00007FF0
00007FF0
00007FF0
00007FF0
00007FF0
00007FF0
00007FF0
00007FF0
00007FF0
00007FF0
00007FF0
00000000
00000000
00000000
00000000
00000000
00000000
00000000
00000000
00000000
00000000
00000000
00000000
00000000
00000000
ENDCHAR
STARTCHAR 2462
ENCODING 9314
SWIDTH 3360 0
DWIDTH 28 0
BBX 28 28 0 0
BITMAP
00000000
00000000
00000000
1FFC7FF0
1FFC7FF0
1FFC7FF0
1FFC7FF0
1FFC7FF0
1FFC7FF0
1FFC7FF0
1FFC7FF0
1FFC7FF0
1FFC7FF0
1FFC7FF0
00000000
00000000
00000000
00000000
00000000
00000000
00000000
00000000
00000000
00000000
00000000
00000000
00000000
00000000
ENDCHAR
STARTCHAR 2463
ENCODING 9315
SWIDTH 3360 0
DWIDTH 28 0
BBX 28 28 0 0
BITMAP
00000000
00000000
00000000
00000000
00000000
00000000
00000000
00000000
00000000
00000000
00000000
00000000
00000000
00000000
00000000
00000000
00000000
1FFC0000
1FFC0000
1FFC0000
1FFC0000
1FFC0000
1FFC0000
1FFC0000
1FFC0000
1FFC0000
1FFC0000
1FFC0000
ENDCHAR
STARTCHAR 2464
ENCODING 9316
SWIDTH 3360 0
DWIDTH 28 0
BBX 28 28 0 0
BITMAP
00000000
00000000
00000000
1FFC0000
1FFC0000
1FFC0000
1FFC0000
1FFC0000
1FFC0000
1FFC0000
1FFC0000
1FFC0000
1FFC0000
1FFC0000
00000000
00000000
00000000
1FFC0000
1FFC0000
1FFC0000
1FFC0000
1FFC0000
1FFC0000
1FFC0000
1FFC0000
1FFC0000
1FFC0000
1FFC0000
ENDCHAR
STARTCHAR 2465
ENCODING 9317
SWIDTH 3360 0
DWIDTH 28 0
BBX 28 28 0 0
BITMAP
00000000
00000000
00000000
00007FF0
00007FF0
00007FF0
00007FF0
00007FF0
00007FF0
00007FF0
00007FF0
00007FF0
00007FF0
00007FF0
00000000
00000000
00000000
1FFC0000
1FFC0000
1FFC0000
1FFC0000
1FFC0000
1FFC0000
1FFC0000
1FFC0000
1FFC0000
1FFC0000
1FFC0000
ENDCHAR
STARTCHAR 2466
ENCODING 9318
SWIDTH 3360 0
DWIDTH 28 0
BBX 28 28 0 0
BITMAP
00000000
00000000
00000000
1FFC7FF0
1FFC7FF0
1FFC7FF0
1FFC7FF0
1FFC7FF0
1FFC7FF0
1FFC7FF0
1FFC7FF0
1FFC7FF0
1FFC7FF0
1FFC7FF0
00000000
00000000
00000000
1FFC0000
1FFC0000
1FFC0000
1FFC0000
1FFC0000
1FFC0000
1FFC0000
1FFC0000
1FFC0000
1FFC0000
1FFC0000
ENDCHAR
STARTCHAR 2467
ENCODING 9319
SWIDTH 3360 0
DWIDTH 28 0
BBX 28 28 0 0
BITMAP
00000000
00000000
00000000
00000000
00000000
00000000
00000000
00000000
00000000
00000000
00000000
00000000
00000000
00000000
00000000
00000000
00000000
00007FF0
00007FF0
00007FF0
00007FF0
00007FF0
00007FF0
00007FF0
00007FF0
00007FF0
00007FF0
00007FF0
ENDCHAR
STARTCHAR 2468
ENCODING 9320
SWIDTH 3360 0
DWIDTH 28 0
BBX 28 28 0 0
BITMAP
00000000
00000000
00000000
1FFC0000
1FFC0000
1FFC0000
1FFC0000
1FFC0000
1FFC0000
1FFC0000
1FFC0000
1FFC0000
1FFC0000
1FFC0000
00000000
00000000
00000000
00007FF0
00007FF0
00007FF0
00007FF0
00007FF0
00007FF0
00007FF0
00007FF0
00007FF0
00007FF0
00007FF0
ENDCHAR
STARTCHAR 2469
ENCODING 9321
SWIDTH 3360 0
DWIDTH 28 0
BBX 28 28 0 0
BITMAP
00000000
00000000
00000000
00007FF0
00007FF0
00007FF0
00007FF0
00007FF0
00007FF0
00007FF0
00007FF0
00007FF0
00007FF0
00007FF0
00000000
00000000
00000000
00007FF0
00007FF0
00007FF0
00007FF0
00007FF0
00007FF0
00007FF0
00007FF0
00007FF0
00007FF0
00007FF0
ENDCHAR
STARTCHAR 246a
ENCODING 9322
SWIDTH 3360 0
DWIDTH 28 0
BBX 28 28 0 0
BITMAP
00000000
00000000
00000000
1FFC7FF0
1FFC7FF0
1FFC7FF0
1FFC7FF0
1FFC7FF0
1FFC7FF0
1FFC7FF0
1FFC7FF0
1FFC7FF0
1FFC7FF0
1FFC7FF0
00000000
00000000
00000000
00007FF0
00007FF0
00007FF0
00007FF0
00007FF0
00007FF0
00007FF0
00007FF0
00007FF0
00007FF0
00007FF0
ENDCHAR
STARTCHAR 246b
ENCODING 9323
SWIDTH 3360 0
DWIDTH 28 0
BBX 28 28 0 0
BITMAP
00000000
00000000
00000000
00000000
00000000
00000000
00000000
00000000
00000000
00000000
00000000
00000000
00000000
00000000
00000000
00000000
00000000
1FFC7FF0
1FFC7FF0
1FFC7FF0
1FFC7FF0
1FFC7FF0
1FFC7FF0
1FFC7FF0
1FFC7FF0
1FFC7FF0
1FFC7FF0
1FFC7FF0
ENDCHAR
STARTCHAR 246c
ENCODING 9324
SWIDTH 3360 0
DWIDTH 28 0
BBX 28 28 0 0
BITMAP
00000000
00000000
00000000
1FFC0000
1FFC0000
1FFC0000
1FFC0000
1FFC0000
1FFC0000
1FFC0000
1FFC0000
1FFC0000
1FFC0000
1FFC0000
00000000
00000000
00000000
1FFC7FF0
1FFC7FF0
1FFC7FF0
1FFC7FF0
1FFC7FF0
1FFC7FF0
1FFC7FF0
1FFC7FF0
1FFC7FF0
1FFC7FF0
1FFC7FF0
ENDCHAR
STARTCHAR 246d
ENCODING 9325
SWIDTH 3360 0
DWIDTH 28 0
BBX 28 28 0 0
BITMAP
00000000
00000000
00000000
00007FF0
00007FF0
00007FF0
00007FF0
00007FF0
00007FF0
00007FF0
00007FF0
00007FF0
00007FF0
00007FF0
00000000
00000000
00000000
1FFC7FF0
1FFC7FF0
1FFC7FF0
1FFC7FF0
1FFC7FF0
1FFC7FF0
1FFC7FF0
1FFC7FF0
1FFC7FF0
1FFC7FF0
1FFC7FF0
ENDCHAR
STARTCHAR 246e
ENCODING 9326
SWIDTH 3360 0
DWIDTH 28 0
BBX 28 28 0 0
BITMAP
00000000
00000000
00000000
1FFC7FF0
1FFC7FF0
1FFC7FF0
1FFC7FF0
1FFC7FF0
1FFC7FF0
1FFC7FF0
1FFC7FF0
1FFC7FF0
1FFC7FF0
1FFC7FF0
00000000
00000000
00000000
1FFC7FF0
1FFC7FF0
1FFC7FF0
1FFC7FF0
1FFC7FF0
1FFC7FF0
1FFC7FF0
1FFC7FF0
1FFC7FF0
1FFC7FF0
1FFC7FF0
ENDCHAR
STARTCHAR 24b8
ENCODING 9400
SWIDTH 3360 0
DWIDTH 28 0
BBX 28 28 0 0
BITMAP
FFE007F0
FFE007F0
FFE007F0
FFFFFFF0
FE3FF8F0
FE3FF8F0
FE3FF8F0
F1FFFFF0
F1FFFFF0
F1FFFFF0
F1FFFFF0
F1FFFFF0
F1FFFFF0
F1FFFFF0
F1FFFFF0
F1FFFFF0
F1FFFFF0
FFFFFFF0
FE3FF8F0
FE3FF8F0
FE3FF8F0
FFE007F0
FFE007F0
FFE007F0
FFFFFFF0
FFFFFFF0
FFFFFFF0
FFFFFFF0
ENDCHAR
STARTCHAR 24bd
ENCODING 9405
SWIDTH 3360 0
DWIDTH 28 0
BBX 28 28 0 0
BITMAP
F1FFC7F0
F1FFC7F0
F1FFC7F0
F1FFC7F0
F1FFC7F0
F1FFC7F0
F1FFC7F0
F1FFC7F0
F1FFC7F0
F1FFC7F0
F1FFC7F0
F00007F0
F00007F0
F00007F0
F1FFC7F0
F1FFC7F0
F1FFC7F0
F1FFC7F0
F1FFC7F0
F1FFC7F0
F1FFC7F0
F1FFC7F0
F1FFC7F0
F1FFC7F0
FFFFFFF0
FFFFFFF0
FFFFFFF0
FFFFFFF0
ENDCHAR
STARTCHAR 2500
ENCODING 9472
SWIDTH 3360 0
DWIDTH 28 0
BBX 28 28 0 0
BITMAP
00000000
00000000
00000000
00000000
00000000
00000000
00000000
00000000
00000000
00000000
00000000
00000000
00000000
00000000
FFFFFFF0
FFFFFFF0
FFFFFFF0
FFFFFFF0
00000000
00000000
00000000
00000000
00000000
00000000
00000000
00000000
00000000
00000000
ENDCHAR
STARTCHAR 2503
ENCODING 9475
SWIDTH 3360 0
DWIDTH 28 0
BBX 28 28 0 0
BITMAP
003C0000
003C0000
003C0000
003C0000
003C0000
003C0000
003C0000
003C0000
003C0000
003C0000
003C0000
003C0000
003C0000
003C0000
003C0000
003C0000
003C0000
003C0000
003C0000
003C0000
003C0000
003C0000
003C0000
003C0000
003C0000
003C0000
003C0000
003C0000
ENDCHAR
STARTCHAR 2506
ENCODING 9478
SWIDTH 3360 0
DWIDTH 28 0
BBX 28 28 0 0
BITMAP
00000780
00000780
00000780
00000780
00000780
00000780
00000780
00000780
00000780
00000780
00000780
00000780
00000780
00000780
00000780
00000780
00000780
00000780
00000780
00000780
00000780
00000780
00000780
00000780
00000780
00000780
00000780
00000780
ENDCHAR
STARTCHAR 2507
ENCODING 9479
SWIDTH 3360 0
DWIDTH 28 0
BBX 28 28 0 0
BITMAP
1E000000
1E000000
1E000000
1E000000
1E000000
1E000000
1E000000
1E000000
1E000000
1E000000
1E000000
1E000000
1E000000
1E000000
1E000000
1E000000
1E000000
1E000000
1E000000
1E000000
1E000000
1E000000
1E000000
1E000000
1E000000
1E000000
1E000000
1E000000
ENDCHAR
STARTCHAR 250a
ENCODING 9482
SWIDTH 3360 0
DWIDTH 28 0
BBX 28 28 0 0
BITMAP
00007800
00007800
00007800
00007800
00007800
00007800
00007800
00007800
00007800
00007800
00007800
00007800
00007800
00007800
00007800
00007800
00007800
00007800
00007800
00007800
00007800
00007800
00007800
00007800
00007800
00007800
00007800
00007800
ENDCHAR
STARTCHAR 250b
ENCODING 9483
SWIDTH 3360 0
DWIDTH 28 0
BBX 28 28 0 0
BITMAP
01E00000
01E00000
01E00000
01E00000
01E00000
01E00000
01E00000
01E00000
01E00000
01E00000
01E00000
01E00000
01E00000
01E00000
01E00000
01E00000
01E00000
01E00000
01E00000
01E00000
01E00000
01E00000
01E00000
01E00000
01E00000
01E00000
01E00000
01E00000
ENDCHAR
STARTCHAR 250c
ENCODING 9484
SWIDTH 3360 0
DWIDTH 28 0
BBX 28 28 0 0
BITMAP
00000000
00000000
00000000
00000000
00000000
00000000
00000000
00000000
00000000
00000000
00000000
00000000
00000000
00000000
0003FFF0
0003FFF0
0003FFF0
0003FFF0
0003C000
0003C000
0003C000
0003C000
0003C000
0003C000
0003C000
0003C000
0003C000
0003C000
ENDCHAR
STARTCHAR 250f
ENCODING 9487
SWIDTH 3360 0
DWIDTH 28 0
BBX 28 28 0 0
BITMAP
FFFFFFF0
FFFFFFF0
FFFFFFF0
FFFFFFF0
F0000000
F0000000
F0000000
F0000000
F0000000
F0000000
F0000000
F0000000
F0000000
F0000000
F0000000
F0000000
F0000000
F0000000
F0000000
F0000000
F0000000
F0000000
F0000000
F0000000
F0000000
F0000000
F0000000
F0000000
ENDCHAR
STARTCHAR 2510
ENCODING 9488
SWIDTH 3360 0
DWIDTH 28 0
BBX 28 28 0 0
BITMAP
00000000
00000000
00000000
00000000
00000000
00000000
00000000
00000000
00000000
00000000
00000000
00000000
00000000
00000000
FFFFC000
FFFFC000
FFFFC000
FFFFC000
0003C000
0003C000
0003C000
0003C000
0003C000
0003C000
0003C000
0003C000
0003C000
0003C000
ENDCHAR
STARTCHAR 2513
ENCODING 9491
SWIDTH 3360 0
DWIDTH 28 0
BBX 28 28 0 0
BITMAP
FFFFFFF0
FFFFFFF0
FFFFFFF0
FFFFFFF0
000000F0
000000F0
000000F0
000000F0
000000F0
000000F0
000000F0
000000F0
000000F0
000000F0
000000F0
000000F0
000000F0
000000F0
000000F0
000000F0
000000F0
000000F0
000000F0
000000F0
000000F0
000000F0
000000F0
000000F0
ENDCHAR
STARTCHAR 2514
ENCODING 9492
SWIDTH 3360 0
DWIDTH 28 0
BBX 28 28 0 0
BITMAP
0003C000
0003C000
0003C000
0003C000
0003C000
0003C000
0003C000
0003C000
0003C000
0003C000
0003C000
0003C000
0003C000
0003C000
0003FFF0
0003FFF0
0003FFF0
0003FFF0
00000000
00000000
00000000
00000000
00000000
00000000
00000000
00000000
00000000
00000000
ENDCHAR
STARTCHAR 2517
ENCODING 9495
SWIDTH 3360 0
DWIDTH 28 0
BBX 28 28 0 0
BITMAP
F0000000
F0000000
F0000000
F0000000
F0000000
F0000000
F0000000
F0000000
F0000000
F0000000
F0000000
F0000000
F0000000
F0000000
F0000000
F0000000
F0000000
F0000000
F0000000
F0000000
F0000000
F0000000
F0000000
F0000000
FFFFFFF0
FFFFFFF0
FFFFFFF0
FFFFFFF0
ENDCHAR
STARTCHAR 2518
ENCODING 9496
SWIDTH 3360 0
DWIDTH 28 0
BBX 28 28 0 0
BITMAP
0003C000
0003C000
0003C000
0003C000
0003C000
0003C000
0003C000
0003C000
0003C000
0003C000
0003C000
0003C000
0003C000
0003C000
FFFFC000
FFFFC000
FFFFC000
FFFFC000
00000000
00000000
00000000
00000000
00000000
00000000
00000000
00000000
00000000
00000000
ENDCHAR
STARTCHAR 251b
ENCODING 9499
SWIDTH 3360 0
DWIDTH 28 0
BBX 28 28 0 0
BITMAP
000000F0
000000F0
000000F0
000000F0
000000F0
000000F0
000000F0
000000F0
000000F0
000000F0
000000F0
000000F0
000000F0
000000F0
000000F0
000000F0
000000F0
000000F0
000000F0
000000F0
000000F0
000000F0
000000F0
000000F0
FFFFFFF0
FFFFFFF0
FFFFFFF0
FFFFFFF0
ENDCHAR
STARTCHAR 251c
ENCODING 9500
SWIDTH 3360 0
DWIDTH 28 0
BBX 28 28 0 0
BITMAP
0003C000
0003C000
0003C000
0003C000
0003C000
0003C000
0003C000
0003C000
0003C000
0003C000
0003C000
0003C000
0003C000
0003C000
0003FFF0
0003FFF0
0003FFF0
0003FFF0
0003C000
0003C000
0003C000
0003C000
0003C000
0003C000
0003C000
0003C000
0003C000
0003C000
ENDCHAR
STARTCHAR 2524
ENCODING 9508
SWIDTH 3360 0
DWIDTH 28 0
BBX 28 28 0 0
BITMAP
0003C000
0003C000
0003C000
0003C000
0003C000
0003C000
0003C000
0003C000
0003C000
0003C000
0003C000
0003C000
0003C000
0003C000
FFFFC000
FFFFC000
FFFFC000
FFFFC000
0003C000
0003C000
0003C000
0003C000
0003C000
0003C000
0003C000
0003C000
0003C000
0003C000
ENDCHAR
STARTCHAR 252c
ENCODING 9516
SWIDTH 3360 0
DWIDTH 28 0
BBX 28 28 0 0
BITMAP
00000000
00000000
00000000
00000000
00000000
00000000
00000000
00000000
00000000
00000000
00000000
00000000
00000000
00000000
FFFFFFF0
FFFFFFF0
FFFFFFF0
FFFFFFF0
0003C000
0003C000
0003C000
0003C000
0003C000
0003C000
0003C000
0003C000
0003C000
0003C000
ENDCHAR
STARTCHAR 2534
ENCODING 9524
SWIDTH 3360 0
DWIDTH 28 0
BBX 28 28 0 0
BITMAP
0003C000
0003C000
0003C000
0003C000
0003C000
0003C000
0003C000
0003C000
0003C000
0003C000
0003C000
0003C000
0003C000
0003C000
FFFFFFF0
FFFFFFF0
FFFFFFF0
FFFFFFF0
00000000
00000000
00000000
00000000
00000000
00000000
00000000
00000000
00000000
00000000
ENDCHAR
STARTCHAR 253c
ENCODING 9532
SWIDTH 3360 0
DWIDTH 28 0
BBX 28 28 0 0
BITMAP
0003C000
0003C000
0003C000
0003C000
0003C000
0003C000
0003C000
0003C000
0003C000
0003C000
0003C000
0003C000
0003C000
0003C000
FFFFFFF0
FFFFFFF0
FFFFFFF0
FFFFFFF0
0003C000
0003C000
0003C000
0003C000
0003C000
0003C000
0003C000
0003C000
0003C000
0003C000
ENDCHAR
STARTCHAR 256d
ENCODING 9581
SWIDTH 3360 0
DWIDTH 28 0
BBX 28 28 0 0
BITMAP
00000000
00000000
00000000
00000000
00000000
00000000
00000000
00000000
00000000
00000000
00000000
00000000
00000000
00000000
000007F0
000007F0
000007F0
00007FF0
00007800
00007800
00007800
0003C000
0003C000
0003C000
0003C000
0003C000
0003C000
0003C000
ENDCHAR
STARTCHAR 256e
ENCODING 9582
SWIDTH 3360 0
DWIDTH 28 0
BBX 28 28 0 0
BITMAP
00000000
00000000
00000000
00000000
00000000
00000000
00000000
00000000
00000000
00000000
00000000
00000000
00000000
00000000
FE000000
FE000000
FE000000
FFE00000
01E00000
01E00000
01E00000
003C0000
003C0000
003C0000
003C0000
003C0000
003C0000
003C0000
ENDCHAR
STARTCHAR 256f
ENCODING 9583
SWIDTH 3360 0
DWIDTH 28 0
BBX 28 28 0 0
BITMAP
003C0000
003C0000
003C0000
003C0000
003C0000
003C0000
003C0000
01E00000
01E00000
01E00000
FFE00000
FE000000
FE000000
FE000000
00000000
00000000
00000000
00000000
00000000
00000000
00000000
00000000
00000000
00000000
00000000
00000000
00000000
00000000
ENDCHAR
STARTCHAR 2570
ENCODING 9584
SWIDTH 3360 0
DWIDTH 28 0
BBX 28 28 0 0
BITMAP
0003C000
0003C000
0003C000
0003C000
0003C000
0003C000
0003C000
00007800
00007800
00007800
00007FF0
000007F0
000007F0
000007F0
00000000
00000000
00000000
00000000
00000000
00000000
00000000
00000000
00000000
00000000
00000000
00000000
00000000
00000000
ENDCHAR
STARTCHAR 2580
ENCODING 9600
SWIDTH 3360 0
DWIDTH 28 0
BBX 28 28 0 0
BITMAP
FFFFFFF0
FFFFFFF0
FFFFFFF0
FFFFFFF0
FFFFFFF0
FFFFFFF0
FFFFFFF0
FFFFFFF0
FFFFFFF0
FFFFFFF0
FFFFFFF0
FFFFFFF0
FFFFFFF0
FFFFFFF0
00000000
00000000
00000000
00000000
00000000
00000000
00000000
00000000
00000000
00000000
00000000
00000000
00000000
00000000
ENDCHAR
STARTCHAR 2582
ENCODING 9602
SWIDTH 3360 0
DWIDTH 28 0
BBX 28 28 0 0
BITMAP
00000000
00000000
00000000
00000000
00000000
00000000
00000000
00000000
00000000
00000000
00000000
00000000
00000000
00000000
00000000
00000000
00000000
00000000
00000000
00000000
00000000
FFFFFFF0
FFFFFFF0
FFFFFFF0
FFFFFFF0
FFFFFFF0
FFFFFFF0
FFFFFFF0
ENDCHAR
STARTCHAR 2583
ENCODING 9603
SWIDTH 3360 0
DWIDTH 28 0
BBX 28 28 0 0
BITMAP
00000000
00000000
00000000
00000000
00000000
00000000
00000000
00000000
00000000
00000000
00000000
00000000
00000000
00000000
00000000
00000000
00000000
FFFFFFF0
FFFFFFF0
FFFFFFF0
FFFFFFF0
FFFFFFF0
FFFFFFF0
FFFFFFF0
FFFFFFF0
FFFFFFF0
FFFFFFF0
FFFFFFF0
ENDCHAR
STARTCHAR 2584
ENCODING 9604
SWIDTH 3360 0
DWIDTH 28 0
BBX 28 28 0 0
BITMAP
00000000
00000000
00000000
00000000
00000000
00000000
00000000
00000000
00000000
00000000
00000000
00000000
00000000
00000000
FFFFFFF0
FFFFFFF0
FFFFFFF0
FFFFFFF0
FFFFFFF0
FFFFFFF0
FFFFFFF0
FFFFFFF0
FFFFFFF0
FFFFFFF0
FFFFFFF0
FFFFFFF0
FFFFFFF0
FFFFFFF0
ENDCHAR
STARTCHAR 258d
ENCODING 9613
SWIDTH 3360 0
DWIDTH 28 0
BBX 28 28 0 0
BITMAP
FFFC0000
FFFC0000
FFFC0000
FFFC0000
FFFC0000
FFFC0000
FFFC0000
FFFC0000
FFFC0000
FFFC0000
FFFC0000
FFFC0000
FFFC0000
FFFC0000
FFFC0000
FFFC0000
FFFC0000
FFFC0000
FFFC0000
FFFC0000
FFFC0000
FFFC0000
FFFC0000
FFFC0000
FFFC0000
FFFC0000
FFFC0000
FFFC0000
ENDCHAR
STARTCHAR 258e
ENCODING 9614
SWIDTH 3360 0
DWIDTH 28 0
BBX 28 28 0 0
BITMAP
FE000000
FE000000
FE000000
FE000000
FE000000
FE000000
FE000000
FE000000
FE000000
FE000000
FE000000
FE000000
FE000000
FE000000
FE000000
FE000000
FE000000
FE000000
FE000000
FE000000
FE000000
FE000000
FE000000
FE000000
FE000000
FE000000
FE000000
FE000000
ENDCHAR
STARTCHAR 258f
ENCODING 9615
SWIDTH 3360 0
DWIDTH 28 0
BBX 28 28 0 0
BITMAP
F0000000
F0000000
F0000000
F0000000
F0000000
F0000000
F0000000
F0000000
F0000000
F0000000
F0000000
F0000000
F0000000
F0000000
F0000000
F0000000
F0000000
F0000000
F0000000
F0000000
F0000000
F0000000
F0000000
F0000000
F0000000
F0000000
F0000000
F0000000
ENDCHAR
STARTCHAR 2590
ENCODING 9616
SWIDTH 3360 0
DWIDTH 28 0
BBX 28 28 0 0
BITMAP
0003FFF0
0003FFF0
0003FFF0
0003FFF0
0003FFF0
0003FFF0
0003FFF0
0003FFF0
0003FFF0
0003FFF0
0003FFF0
0003FFF0
0003FFF0
0003FFF0
0003FFF0
0003FFF0
0003FFF0
0003FFF0
0003FFF0
0003FFF0
0003FFF0
0003FFF0
0003FFF0
0003FFF0
0003FFF0
0003FFF0
0003FFF0
0003FFF0
ENDCHAR
STARTCHAR 2591
ENCODING 9617
SWIDTH 3360 0
DWIDTH 28 0
BBX 28 28 0 0
BITMAP
1E3C78F0
1E3C78F0
1E3C78F0
FFFFFFF0
F1E3C780
F1E3C780
F1E3C780
1E3C78F0
1E3C78F0
1E3C78F0
FFFFFFF0
F1E3C780
F1E3C780
F1E3C780
1E3C78F0
1E3C78F0
1E3C78F0
FFFFFFF0
F1E3C780
F1E3C780
F1E3C780
1E3C78F0
1E3C78F0
1E3C78F0
FFFFFFF0
F1E3C780
F1E3C780
F1E3C780
ENDCHAR
STARTCHAR 2592
ENCODING 9618
SWIDTH 3360 0
DWIDTH 28 0
BBX 28 28 0 0
BITMAP
F1E3C780
F1E3C780
F1E3C780
FFFFFFF0
1E3C78F0
1E3C78F0
1E3C78F0
F1E3C780
F1E3C780
F1E3C780
FFFFFFF0
1E3C78F0
1E3C78F0
1E3C78F0
F1E3C780
F1E3C780
F1E3C780
FFFFFFF0
1E3C78F0
1E3C78F0
1E3C78F0
F1E3C780
F1E3C780
F1E3C780
FFFFFFF0
1E3C78F0
1E3C78F0
1E3C78F0
ENDCHAR
STARTCHAR 2593
ENCODING 9619
SWIDTH 3360 0
DWIDTH 28 0
BBX 28 28 0 0
BITMAP
F1E00000
F1E00000
F1E00000
FFFC0000
1E3C0000
1E3C0000
1E3C0000
F1E00000
F1E00000
F1E00000
FFFC0000
1E3C0000
1E3C0000
1E3C0000
F1E00000
F1E00000
F1E00000
FFFC0000
1E3C0000
1E3C0000
1E3C0000
F1E00000
F1E00000
F1E00000
FFFC0000
1E3C0000
1E3C0000
1E3C0000
ENDCHAR
STARTCHAR 2595
ENCODING 9621
SWIDTH 3360 0
DWIDTH 28 0
BBX 28 28 0 0
BITMAP
000000F0
000000F0
000000F0
000000F0
000000F0
000000F0
000000F0
000000F0
000000F0
000000F0
000000F0
000000F0
000000F0
000000F0
000000F0
000000F0
000000F0
000000F0
000000F0
000000F0
000000F0
000000F0
000000F0
000000F0
000000F0
000000F0
000000F0
000000F0
ENDCHAR
STARTCHAR 259a
ENCODING 9626
SWIDTH 3360 0
DWIDTH 28 0
BBX 28 28 0 0
BITMAP
FFFC0000
FFFC0000
FFFC0000
FFFC0000
FFFC0000
FFFC0000
FFFC0000
FFFC0000
FFFC0000
FFFC0000
FFFC0000
FFFC0000
FFFC0000
FFFC0000
0003FFF0
0003FFF0
0003FFF0
0003FFF0
0003FFF0
0003FFF0
0003FFF0
0003FFF0
0003FFF0
0003FFF0
0003FFF0
0003FFF0
0003FFF0
0003FFF0
ENDCHAR
STARTCHAR 259e
ENCODING 9630
SWIDTH 3360 0
DWIDTH 28 0
BBX 28 28 0 0
BITMAP
0003FFF0
0003FFF0
0003FFF0
0003FFF0
0003FFF0
0003FFF0
0003FFF0
0003FFF0
0003FFF0
0003FFF0
0003FFF0
0003FFF0
0003FFF0
0003FFF0
FFFC0000
FFFC0000
FFFC0000
FFFC0000
FFFC0000
FFFC0000
FFFC0000
FFFC0000
FFFC0000
FFFC0000
FFFC0000
FFFC0000
FFFC0000
FFFC0000
ENDCHAR
STARTCHAR 25a0
ENCODING 9632
SWIDTH 3360 0
DWIDTH 28 0
BBX 28 28 0 0
BITMAP
FFFFFFF0
FFFFFFF0
FFFFFFF0
FFFFFFF0
FFFFFFF0
FFFFFFF0
FFFFFFF0
FFFFFFF0
FFFFFFF0
FFFFFFF0
FFFFFFF0
FFFFFFF0
FFFFFFF0
FFFFFFF0
FFFFFFF0
FFFFFFF0
FFFFFFF0
FFFFFFF0
FFFFFFF0
FFFFFFF0
FFFFFFF0
FFFFFFF0
FFFFFFF0
FFFFFFF0
FFFFFFF0
FFFFFFF0
FFFFFFF0
FFFFFFF0
ENDCHAR
STARTCHAR 25bd
ENCODING 9661
SWIDTH 3360 0
DWIDTH 28 0
BBX 28 28 0 0
BITMAP
FFFFFFF0
FFFFFFF0
FFFFFFF0
FFFFFFF0
FFFFFFF0
FFFFFFF0
FFFFFFF0
00000000
00000000
00000000
00000000
00000000
00000000
00000000
00000000
00000000
00000000
00000000
00000000
00000000
00000000
00000000
00000000
00000000
00000000
00000000
00000000
00000000
ENDCHAR
STARTCHAR 25c0
ENCODING 9664
SWIDTH 3360 0
DWIDTH 28 0
BBX 28 28 0 0
BITMAP
00007FF0
00007FF0
00007FF0
00007FF0
00007FF0
00007FF0
00007FF0
00007FF0
00007FF0
00007FF0
00007FF0
00007FF0
00007FF0
00007FF0
00007FF0
00007FF0
00007FF0
00007FF0
00007FF0
00007FF0
00007FF0
00007FF0
00007FF0
00007FF0
00007FF0
00007FF0
00007FF0
00007FF0
ENDCHAR
STARTCHAR 25c1
ENCODING 9665
SWIDTH 3360 0
DWIDTH 28 0
BBX 28 28 0 0
BITMAP
000007F0
000007F0
000007F0
000007F0
000007F0
000007F0
000007F0
000007F0
000007F0
000007F0
000007F0
000007F0
000007F0
000007F0
000007F0
000007F0
000007F0
000007F0
000007F0
000007F0
000007F0
000007F0
000007F0
000007F0
000007F0
000007F0
000007F0
000007F0
ENDCHAR
STARTCHAR 25cb
ENCODING 9675
SWIDTH 3360 0
DWIDTH 28 0
BBX 28 28 0 0
BITMAP
00000000
00000000
00000000
01FFF800
01FFF800
01FFF800
01FFF800
1E000780
1E000780
1E000780
1E000780
1E000780
1E000780
1E000780
1E000780
1E000780
1E000780
1E000780
1E000780
1E000780
1E000780
01FFF800
01FFF800
01FFF800
01FFF800
00000000
00000000
00000000
ENDCHAR
STARTCHAR 25ce
ENCODING 9678
SWIDTH 3360 0
DWIDTH 28 0
BBX 28 28 0 0
BITMAP
FFFFFFF0
FFFFFFF0
FFFFFFF0
FFFFFFF0
FE0007F0
FE0007F0
FE0007F0
F00000F0
F00000F0
F00000F0
F00000F0
F00000F0
F00000F0
F00000F0
F00000F0
F00000F0
F00000F0
F00000F0
F00000F0
F00000F0
F00000F0
FE0007F0
FE0007F0
FE0007F0
FFFFFFF0
FFFFFFF0
FFFFFFF0
FFFFFFF0
ENDCHAR
STARTCHAR 25cf
ENCODING 9679
SWIDTH 3360 0
DWIDTH 28 0
BBX 28 28 0 0
BITMAP
00000000
00000000
00000000
01FFF800
01FFF800
01FFF800
01FFF800
1FFFFF80
1FFFFF80
1FFFFF80
1FFFFF80
1FFFFF80
1FFFFF80
1FFFFF80
1FFFFF80
1FFFFF80
1FFFFF80
1FFFFF80
1FFFFF80
1FFFFF80
1FFFFF80
01FFF800
01FFF800
01FFF800
01FFF800
00000000
00000000
00000000
ENDCHAR
STARTCHAR 25e2
ENCODING 9698
SWIDTH 3360 0
DWIDTH 28 0
BBX 28 28 0 0
BITMAP
000000F0
000000F0
000000F0
000007F0
000007F0
000007F0
000007F0
00007FF0
00007FF0
00007FF0
0003FFF0
0003FFF0
0003FFF0
0003FFF0
003FFFF0
003FFFF0
003FFFF0
01FFFFF0
01FFFFF0
01FFFFF0
01FFFFF0
1FFFFFF0
1FFFFFF0
1FFFFFF0
FFFFFFF0
FFFFFFF0
FFFFFFF0
FFFFFFF0
ENDCHAR
STARTCHAR 25e3
ENCODING 9699
SWIDTH 3360 0
DWIDTH 28 0
BBX 28 28 0 0
BITMAP
F0000000
F0000000
F0000000
FE000000
FE000000
FE000000
FE000000
FFE00000
FFE00000
FFE00000
FFFC0000
FFFC0000
FFFC0000
FFFC0000
FFFFC000
FFFFC000
FFFFC000
FFFFF800
FFFFF800
FFFFF800
FFFFF800
FFFFFF80
FFFFFF80
FFFFFF80
FFFFFFF0
FFFFFFF0
FFFFFFF0
FFFFFFF0
ENDCHAR
STARTCHAR 25e4
ENCODING 9700
SWIDTH 3360 0
DWIDTH 28 0
BBX 28 28 0 0
BITMAP
FFFFFFF0
FFFFFFF0
FFFFFFF0
FFFFFFF0
FFFFFF80
FFFFFF80
FFFFFF80
FFFFF800
FFFFF800
FFFFF800
FFFFF800
FFFFC000
FFFFC000
FFFFC000
FFFC0000
FFFC0000
FFFC0000
FFFC0000
FFE00000
FFE00000
FFE00000
FE000000
FE000000
FE000000
FE000000
F0000000
F0000000
F0000000
ENDCHAR
STARTCHAR 25e5
ENCODING 9701
SWIDTH 3360 0
DWIDTH 28 0
BBX 28 28 0 0
BITMAP
FFFFFFF0
FFFFFFF0
FFFFFFF0
FFFFFFF0
1FFFFFF0
1FFFFFF0
1FFFFFF0
01FFFFF0
01FFFFF0
01FFFFF0
01FFFFF0
003FFFF0
003FFFF0
003FFFF0
0003FFF0
0003FFF0
0003FFF0
0003FFF0
00007FF0
00007FF0
00007FF0
000007F0
000007F0
000007F0
000007F0
000000F0
000000F0
000000F0
ENDCHAR
STARTCHAR 263a
ENCODING 9786
SWIDTH 3360 0
DWIDTH 28 0
BBX 28 28 0 0
BITMAP
01FFF800
01FFF800
01FFF800
1FFFFF80
1E000780
1E000780
1E000780
F00000F0
F00000F0
F00000F0
F1E078F0
F1E078F0
F1E078F0
F1E078F0
F00000F0
F00000F0
F00000F0
F03FC0F0
F03FC0F0
F03FC0F0
F03FC0F0
1E000780
1E000780
1E000780
1FFFFF80
01FFF800
01FFF800
01FFF800
ENDCHAR
STARTCHAR 263b
ENCODING 9787
SWIDTH 3360 0
DWIDTH 28 0
BBX 28 28 0 0
BITMAP
01FFF800
01FFF800
01FFF800
1FFFFF80
1FFFFF80
1FFFFF80
1FFFFF80
FFFFFFF0
FFFFFFF0
FFFFFFF0
FFFFFFF0
FE3FC7F0
FE3FC7F0
FE3FC7F0
FFFFFFF0
FFFFFFF0
FFFFFFF0
FFFFFFF0
FFE07FF0
FFE07FF0
FFE07FF0
1FFFFF80
1FFFFF80
1FFFFF80
1FFFFF80
01FFF800
01FFF800
01FFF800
ENDCHAR
STARTCHAR 2660
ENCODING 9824
SWIDTH 3360 0
DWIDTH 28 0
BBX 28 28 0 0
BITMAP
0003C000
0003C000
0003C000
003FF800
003FF800
003FF800
003FF800
01FFFF80
01FFFF80
01FFFF80
1FFFFFF0
1FFFFFF0
1FFFFFF0
1FFFFFF0
1FFFFFF0
1FFFFFF0
1FFFFFF0
1FFFFFF0
003FF800
003FF800
003FF800
01FFFF80
01FFFF80
01FFFF80
01FFFF80
00000000
00000000
00000000
ENDCHAR
STARTCHAR 2663
ENCODING 9827
SWIDTH 3360 0
DWIDTH 28 0
BBX 28 28 0 0
BITMAP
0003C000
0003C000
0003C000
003FF800
003FF800
003FF800
003FF800
01E3C780
01E3C780
01E3C780
1FFFFFF0
1FFFFFF0
1FFFFFF0
1FFFFFF0
01E3C780
01E3C780
01E3C780
01E3C780
0003C000
0003C000
0003C000
0003C000
0003C000
0003C000
0003C000
00000000
00000000
00000000
ENDCHAR
STARTCHAR 2665
ENCODING 9829
SWIDTH 3360 0
DWIDTH 28 0
BBX 28 28 0 0
BITMAP
01FC7F80
01FC7F80
01FC7F80
1FFFFFF0
1FFFFFF0
1FFFFFF0
1FFFFFF0
1FFFFFF0
1FFFFFF0
1FFFFFF0
1FFFFFF0
1FFFFFF0
1FFFFFF0
1FFFFFF0
01FFFF80
01FFFF80
01FFFF80
01FFFF80
003FF800
003FF800
003FF800
0003C000
0003C000
0003C000
0003C000
00000000
00000000
00000000
ENDCHAR
STARTCHAR 2666
ENCODING 9830
SWIDTH 3360 0
DWIDTH 28 0
BBX 28 28 0 0
BITMAP
0003C000
0003C000
0003C000
003FF800
003FF800
003FF800
003FF800
01FFFF80
01FFFF80
01FFFF80
1FFFFFF0
1FFFFFF0
1FFFFFF0
1FFFFFF0
01FFFF80
01FFFF80
01FFFF80
01FFFF80
003FF800
003FF800
003FF800
0003C000
0003C000
0003C000
0003C000
00000000
00000000
00000000
ENDCHAR
STARTCHAR 3001
ENCODING 12289
SWIDTH 3360 0
DWIDTH 28 0
BBX 28 28 0 0
BITMAP
00000000
00000000
00000000
00000000
00000000
00000000
00000000
00000000
00000000
00000000
00000000
00000000
00000000
00000000
1E000000
1E000000
1E000000
1FE00000
01E00000
01E00000
01E00000
003C0000
003C0000
003C0000
003C0000
00000000
00000000
00000000
ENDCHAR
STARTCHAR 3002
ENCODING 12290
SWIDTH 3360 0
DWIDTH 28 0
BBX 28 28 0 0
BITMAP
00000000
00000000
00000000
00000000
00000000
00000000
00000000
00000000
00000000
00000000
00000000
00000000
00000000
00000000
1FFC0000
1FFC0000
1FFC0000
1FFC0000
1E3C0000
1E3C0000
1E3C0000
1FFC0000
1FFC0000
1FFC0000
1FFC0000
00000000
00000000
00000000
ENDCHAR
STARTCHAR 300c
ENCODING 12300
SWIDTH 3360 0
DWIDTH 28 0
BBX 28 28 0 0
BITMAP
003FFF80
003FFF80
003FFF80
003FFF80
003C0000
003C0000
003C0000
003C0000
003C0000
003C0000
003C0000
003C0000
003C0000
003C0000
00000000
00000000
00000000
00000000
00000000
00000000
00000000
00000000
00000000
00000000
00000000
00000000
00000000
00000000
ENDCHAR
STARTCHAR 300d
ENCODING 12301
SWIDTH 3360 0
DWIDTH 28 0
BBX 28 28 0 0
BITMAP
00000000
00000000
00000000
00000000
00000000
00000000
00000000
00000000
00000000
00000000
0003C000
0003C000
0003C000
0003C000
0003C000
0003C000
0003C000
0003C000
0003C000
0003C000
0003C000
1FFFC000
1FFFC000
1FFFC000
1FFFC000
00000000
00000000
00000000
ENDCHAR
STARTCHAR 300e
ENCODING 12302
SWIDTH 3360 0
DWIDTH 28 0
BBX 28 28 0 0
BITMAP
003FFF80
003FFF80
003FFF80
003FFF80
003C0000
003C0000
003C0000
003C0000
003C0000
003C0000
003C0000
003C0000
003C0000
003C0000
00000000
00000000
00000000
00000000
00000000
00000000
00000000
00000000
00000000
00000000
00000000
00000000
00000000
00000000
ENDCHAR
STARTCHAR 300f
ENCODING 12303
SWIDTH 3360 0
DWIDTH 28 0
BBX 28 28 0 0
BITMAP
00000000
00000000
00000000
00000000
00000000
00000000
00000000
00000000
00000000
00000000
00000000
00000000
00000000
00000000
0003C000
0003C000
0003C000
0003C000
0003C000
0003C000
0003C000
0003C000
0003C000
0003C000
1FFFC000
1FFFC000
1FFFC000
1FFFC000
ENDCHAR
STARTCHAR 301d
ENCODING 12317
SWIDTH 3360 0
DWIDTH 28 0
BBX 28 28 0 0
BITMAP
01E00000
01E00000
01E00000
F1FC0000
F03C0000
F03C0000
F03C0000
1E000000
1E000000
1E000000
1E000000
00000000
00000000
00000000
00000000
00000000
00000000
00000000
00000000
00000000
00000000
00000000
00000000
00000000
00000000
00000000
00000000
00000000
ENDCHAR
STARTCHAR 3041
ENCODING 12353
SWIDTH 3360 0
DWIDTH 28 0
BBX 28 28 0 0
BITMAP
00000000
00000000
00000000
01E00000
01E00000
01E00000
01E00000
1FFC0000
1FFC0000
1FFC0000
1FFC0000
01E00000
01E00000
01E00000
1FFFC000
1FFFC000
1FFFC000
FFFFF800
F03C7800
F03C7800
F03C7800
1FE3C000
1FE3C000
1FE3C000
1FE3C000
00000000
00000000
00000000
ENDCHAR
STARTCHAR 3042
ENCODING 12354
SWIDTH 3360 0
DWIDTH 28 0
BBX 28 28 0 0
BITMAP
01E00000
01E00000
01E00000
FFFFF800
FFFFF800
FFFFF800
FFFFF800
01E00000
01E00000
01E00000
1FFFF800
1FFFF800
1FFFF800
1FFFF800
F1E3C780
F1E3C780
F1E3C780
F1FFC780
F03C0780
F03C0780
F03C0780
1FE07800
1FE07800
1FE07800
1FE07800
00000000
00000000
00000000
ENDCHAR
STARTCHAR 3043
ENCODING 12355
SWIDTH 3360 0
DWIDTH 28 0
BBX 28 28 0 0
BITMAP
00000000
00000000
00000000
00000000
00000000
00000000
00000000
1E03C000
1E03C000
1E03C000
1E03F800
1E007800
1E007800
1E007800
1E007800
1E007800
1E007800
1E007800
1E007800
1E007800
1E007800
01E00000
01E00000
01E00000
01E00000
00000000
00000000
00000000
ENDCHAR
STARTCHAR 3044
ENCODING 12356
SWIDTH 3360 0
DWIDTH 28 0
BBX 28 28 0 0
BITMAP
F0007800
F0007800
F0007800
F0007F80
F0000780
F0000780
F0000780
F0000780
F0000780
F0000780
F0000780
F0000780
F0000780
F0000780
F0000780
F0000780
F0000780
F03C0780
F03C0000
F03C0000
F03C0000
1FE00000
1FE00000
1FE00000
1FE00000
00000000
00000000
00000000
ENDCHAR
STARTCHAR 3045
ENCODING 12357
SWIDTH 3360 0
DWIDTH 28 0
BBX 28 28 0 0
BITMAP
00000000
00000000
00000000
01E00000
01E00000
01E00000
01E00000
00000000
00000000
00000000
1FFFC000
1FFFC000
1FFFC000
1FFFC000
00007800
00007800
00007800
00007800
00007800
00007800
00007800
0003C000
0003C000
0003C000
0003C000
00000000
00000000
00000000
ENDCHAR
STARTCHAR 3046
ENCODING 12358
SWIDTH 3360 0
DWIDTH 28 0
BBX 28 28 0 0
BITMAP
003FC000
003FC000
003FC000
003FC000
00000000
00000000
00000000
01FFF800
01FFF800
01FFF800
1FFFFF80
1E000780
1E000780
1E000780
00000780
00000780
00000780
00007F80
00007800
00007800
00007800
0003C000
0003C000
0003C000
0003C000
00000000
00000000
00000000
ENDCHAR
STARTCHAR 3047
ENCODING 12359
SWIDTH 3360 0
DWIDTH 28 0
BBX 28 28 0 0
BITMAP
00000000
00000000
00000000
01E00000
01E00000
01E00000
01E00000
00000000
00000000
00000000
1FFFC000
1FFFC000
1FFFC000
1FFFC000
003C0000
003C0000
003C0000
01FC0000
01FC0000
01FC0000
01FC0000
1E03F800
1E03F800
1E03F800
1E03F800
00000000
00000000
00000000
ENDCHAR
STARTCHAR 3048
ENCODING 12360
SWIDTH 3360 0
DWIDTH 28 0
BBX 28 28 0 0
BITMAP
003C0000
003C0000
003C0000
003C0000
00000000
00000000
00000000
1FFFF800
1FFFF800
1FFFF800
1FFFF800
0003C000
0003C000
0003C000
003C0000
003C0000
003C0000
01FFC000
01E3C000
01E3C000
01E3C000
1E007F80
1E007F80
1E007F80
1E007F80
00000000
00000000
00000000
ENDCHAR
STARTCHAR 3049
ENCODING 12361
SWIDTH 3360 0
DWIDTH 28 0
BBX 28 28 0 0
BITMAP
00000000
00000000
00000000
01E00000
01E00000
01E00000
01E00000
1FFC7800
1FFC7800
1FFC7800
1FFC7800
01E00000
01E00000
01E00000
1FFFC000
1FFFC000
1FFFC000
FFFFF800
F1E07800
F1E07800
F1E07800
1FE3C000
1FE3C000
1FE3C000
1FE3C000
00000000
00000000
00000000
ENDCHAR
STARTCHAR 304a
ENCODING 12362
SWIDTH 3360 0
DWIDTH 28 0
BBX 28 28 0 0
BITMAP
01E00000
01E00000
01E00000
FFFFF8F0
FFFFF8F0
FFFFF8F0
FFFFF8F0
01E000F0
01E000F0
01E000F0
1FFFF8F0
1FFFF800
1FFFF800
1FFFF800
F1E00780
F1E00780
F1E00780
F1E00780
F1E00780
F1E00780
F1E00780
1FE07800
1FE07800
1FE07800
1FE07800
00000000
00000000
00000000
ENDCHAR
STARTCHAR 304b
ENCODING 12363
SWIDTH 3360 0
DWIDTH 28 0
BBX 28 28 0 0
BITMAP
01E00780
01E00780
01E00780
FFFFC7F0
FFFFC0F0
FFFFC0F0
FFFFC0F0
01E078F0
01E078F0
01E078F0
01E078F0
01E07800
01E07800
01E07800
01E07800
01E07800
01E07800
01E07800
01E07800
01E07800
01E07800
1E03C000
1E03C000
1E03C000
1E03C000
00000000
00000000
00000000
ENDCHAR
STARTCHAR 304d
ENCODING 12365
SWIDTH 3360 0
DWIDTH 28 0
BBX 28 28 0 0
BITMAP
003C0000
003C0000
003C0000
1FFFFF80
1FFFFF80
1FFFFF80
1FFFFF80
0003C000
0003C000
0003C000
1FFFFF80
1FFFFF80
1FFFFF80
1FFFFF80
00007800
00007800
00007800
00007F80
00000780
00000780
00000780
1FE00000
1FE00000
1FE00000
1FFFC000
003FC000
003FC000
003FC000
ENDCHAR
STARTCHAR 304f
ENCODING 12367
SWIDTH 3360 0
DWIDTH 28 0
BBX 28 28 0 0
BITMAP
0003F800
0003F800
0003F800
003FF800
003FC000
003FC000
003FC000
01FC0000
01FC0000
01FC0000
1FFC0000
1FE00000
1FE00000
1FE00000
01FC0000
01FC0000
01FC0000
01FFC000
003FC000
003FC000
003FC000
0003F800
0003F800
0003F800
0003F800
00000000
00000000
00000000
ENDCHAR
STARTCHAR 3051
ENCODING 12369
SWIDTH 3360 0
DWIDTH 28 0
BBX 28 28 0 0
BITMAP
F0007800
F0007800
F0007800
F1FFFF80
F1FFFF80
F1FFFF80
F1FFFF80
F0007800
F0007800
F0007800
F0007800
F0007800
F0007800
F0007800
F0007800
F0007800
F0007800
F0007800
F0007800
F0007800
F0007800
1E03C000
1E03C000
1E03C000
1E03C000
00000000
00000000
00000000
ENDCHAR
STARTCHAR 3053
ENCODING 12371
SWIDTH 3360 0
DWIDTH 28 0
BBX 28 28 0 0
BITMAP
00000000
00000000
00000000
FFFFF800
FFFFF800
FFFFF800
FFFFF800
00000780
00000780
00000780
00000780
00000000
00000000
00000000
00000000
00000000
00000000
F0000000
F0000000
F0000000
F0000000
1FFFFF80
1FFFFF80
1FFFFF80
1FFFFF80
00000000
00000000
00000000
ENDCHAR
STARTCHAR 3055
ENCODING 12373
SWIDTH 3360 0
DWIDTH 28 0
BBX 28 28 0 0
BITMAP
01E00000
01E00000
01E00000
FFFFFF80
FFFFFF80
FFFFFF80
FFFFFF80
003C0000
003C0000
003C0000
003FC000
0003C000
0003C000
0003C000
1E007800
1E007800
1E007800
1FE07800
01E00000
01E00000
01E00000
003FC000
003FC000
003FC000
003FC000
00000000
00000000
00000000
ENDCHAR
STARTCHAR 3057
ENCODING 12375
SWIDTH 3360 0
DWIDTH 28 0
BBX 28 28 0 0
BITMAP
1E000000
1E000000
1E000000
1E000000
1E000000
1E000000
1E000000
1E000000
1E000000
1E000000
1E000000
1E000000
1E000000
1E000000
1E007800
1E007800
1E007800
1E007800
1E007800
1E007800
1E007800
01FFC000
01FFC000
01FFC000
01FFC000
00000000
00000000
00000000
ENDCHAR
STARTCHAR 3059
ENCODING 12377
SWIDTH 3360 0
DWIDTH 28 0
BBX 28 28 0 0
BITMAP
0003C000
0003C000
0003C000
FFFFFF80
FFFFFF80
FFFFFF80
FFFFFF80
0003C000
0003C000
0003C000
01FFC000
01FFC000
01FFC000
01FFC000
1E03C000
1E03C000
1E03C000
1FFFC000
01FFC000
01FFC000
01FFC000
0003C000
0003C000
0003C000
003FC000
003C0000
003C0000
003C0000
ENDCHAR
STARTCHAR 305b
ENCODING 12379
SWIDTH 3360 0
DWIDTH 28 0
BBX 28 28 0 0
BITMAP
1E007800
1E007800
1E007800
1E007800
1E007800
1E007800
1E007800
FFFFFF80
FFFFFF80
FFFFFF80
FFFFFF80
1E007800
1E007800
1E007800
1E3FC000
1E3FC000
1E3FC000
1E3FC000
1E000000
1E000000
1E000000
01FFFF80
01FFFF80
01FFFF80
01FFFF80
00000000
00000000
00000000
ENDCHAR
STARTCHAR 305d
ENCODING 12381
SWIDTH 3360 0
DWIDTH 28 0
BBX 28 28 0 0
BITMAP
01FFF800
01FFF800
01FFF800
01FFF800
0003C000
0003C000
0003C000
003C0000
003C0000
003C0000
1FFFFF80
1FFFFF80
1FFFFF80
1FFFFF80
0003C000
0003C000
0003C000
003FC000
003C0000
003C0000
003C0000
0003F800
0003F800
0003F800
0003F800
00000000
00000000
00000000
ENDCHAR
STARTCHAR 305f
ENCODING 12383
SWIDTH 3360 0
DWIDTH 28 0
BBX 28 28 0 0
BITMAP
01E00000
01E00000
01E00000
FFFFF800
FFFFF800
FFFFF800
FFFFF800
1E000000
1E000000
1E000000
1E3FFF80
1E3FFF80
1E3FFF80
1E3FFF80
F0000000
F0000000
F0000000
F1E00000
F1E00000
F1E00000
F1E00000
F1FFFF80
F1FFFF80
F1FFFF80
F1FFFF80
00000000
00000000
00000000
ENDCHAR
STARTCHAR 3061
ENCODING 12385
SWIDTH 3360 0
DWIDTH 28 0
BBX 28 28 0 0
BITMAP
003C0000
003C0000
003C0000
FFFFFF80
FFFFFF80
FFFFFF80
FFFFFF80
01E00000
01E00000
01E00000
1FFFF800
1FFFF800
1FFFF800
1FFFF800
00000780
00000780
00000780
00000780
00000780
00000780
00000780
FFFFF800
FFFFF800
FFFFF800
FFFFF800
00000000
00000000
00000000
ENDCHAR
STARTCHAR 3063
ENCODING 12387
SWIDTH 3360 0
DWIDTH 28 0
BBX 28 28 0 0
BITMAP
00000000
00000000
00000000
00000000
00000000
00000000
00000000
00000000
00000000
00000000
FFFFC000
FFFFC000
FFFFC000
FFFFC000
00007800
00007800
00007800
00007800
00007800
00007800
00007800
003FC000
003FC000
003FC000
003FC000
00000000
00000000
00000000
ENDCHAR
STARTCHAR 3064
ENCODING 12388
SWIDTH 3360 0
DWIDTH 28 0
BBX 28 28 0 0
BITMAP
F0000000
F0000000
F0000000
FFFFF800
1FFFF800
1FFFF800
1FFFF800
00000780
00000780
00000780
00000780
00000780
00000780
00000780
00000780
00000780
00000780
00007F80
00007800
00007800
00007800
003FC000
003FC000
003FC000
003FC000
00000000
00000000
00000000
ENDCHAR
STARTCHAR 3066
ENCODING 12390
SWIDTH 3360 0
DWIDTH 28 0
BBX 28 28 0 0
BITMAP
FFFFFF80
FFFFFF80
FFFFFF80
FFFFFF80
00007800
00007800
00007800
0003C000
0003C000
0003C000
003FC000
003C0000
003C0000
003C0000
003C0000
003C0000
003C0000
003FC000
0003C000
0003C000
0003C000
00007800
00007800
00007800
00007800
00000000
00000000
00000000
ENDCHAR
STARTCHAR 3068
ENCODING 12392
SWIDTH 3360 0
DWIDTH 28 0
BBX 28 28 0 0
BITMAP
01E00000
01E00000
01E00000
01E00780
01E00780
01E00780
01E00780
01E3F800
01E3F800
01E3F800
01FFF800
01FC0000
01FC0000
01FC0000
1E000000
1E000000
1E000000
FE000000
F0000000
F0000000
F0000000
1FFFFF80
1FFFFF80
1FFFFF80
1FFFFF80
00000000
00000000
00000000
ENDCHAR
STARTCHAR 306a
ENCODING 12394
SWIDTH 3360 0
DWIDTH 28 0
BBX 28 28 0 0
BITMAP
01E00000
01E00000
01E00000
FFFFC780
FFFFC780
FFFFC780
FFFFC780
1E0000F0
1E0000F0
1E0000F0
1E0078F0
1E007800
1E007800
1E007800
F03FF800
F03FF800
F03FF800
F1FFFF80
F1E07F80
F1E07F80
F1E07F80
003FF800
003FF800
003FF800
003FF800
00000000
00000000
00000000
ENDCHAR
STARTCHAR 306b
ENCODING 12395
SWIDTH 3360 0
DWIDTH 28 0
BBX 28 28 0 0
BITMAP
F03FFF80
F03FFF80
F03FFF80
F03FFF80
F0000000
F0000000
F0000000
F0000000
F0000000
F0000000
F0000000
F0000000
F0000000
F0000000
F0000000
F0000000
F0000000
F03C0000
F03C0000
F03C0000
F03C0000
FE3FFF80
FE3FFF80
FE3FFF80
FE3FFF80
00000000
00000000
00000000
ENDCHAR
STARTCHAR 306c
ENCODING 12396
SWIDTH 3360 0
DWIDTH 28 0
BBX 28 28 0 0
BITMAP
00007800
00007800
00007800
1E007800
1E007800
1E007800
1E007800
1FFFF800
1FFFF800
1FFFF800
1FFFFF80
1E03C780
1E03C780
1E03C780
F1FC0780
F1FC0780
F1FC0780
F1FC7FF0
F03C7FF0
F03C7FF0
F03C7FF0
1FE07F80
1FE07F80
1FE07F80
1FE07F80
00000000
00000000
00000000
ENDCHAR
STARTCHAR 306d
ENCODING 12397
SWIDTH 3360 0
DWIDTH 28 0
BBX 28 28 0 0
BITMAP
01E00000
01E00000
01E00000
FFE07800
FFE07800
FFE07800
FFE07800
01E3C780
01E3C780
01E3C780
01FFC780
01FC0780
01FC0780
01FC0780
1FE07F80
1FE07F80
1FE07F80
FFE3FFF0
F1E3C7F0
F1E3C7F0
F1E3C7F0
01E07F80
01E07F80
01E07F80
01E07F80
00000000
00000000
00000000
ENDCHAR
STARTCHAR 306e
ENCODING 12398
SWIDTH 3360 0
DWIDTH 28 0
BBX 28 28 0 0
BITMAP
01FFC000
01FFC000
01FFC000
1FFFF800
1E3C7800
1E3C7800
1E3C7800
F03C0780
F03C0780
F03C0780
F03C0780
F03C0780
F03C0780
F03C0780
F03C0780
F03C0780
F03C0780
F03C0780
F03C0780
F03C0780
F03C0780
1FE07800
1FE07800
1FE07800
1FE07800
00000000
00000000
00000000
ENDCHAR
STARTCHAR 306f
ENCODING 12399
SWIDTH 3360 0
DWIDTH 28 0
BBX 28 28 0 0
BITMAP
F0007800
F0007800
F0007800
F03FFF80
F03FFF80
F03FFF80
F03FFF80
F0007800
F0007800
F0007800
F0007800
F0007800
F0007800
F0007800
F03FF800
F03FF800
F03FF800
F1FFFF80
F1E07F80
F1E07F80
F1E07F80
1E3FF800
1E3FF800
1E3FF800
1E3FF800
00000000
00000000
00000000
ENDCHAR
STARTCHAR 3072
ENCODING 12402
SWIDTH 3360 0
DWIDTH 28 0
BBX 28 28 0 0
BITMAP
FFE00000
FFE00000
FFE00000
FFE07F80
01E07F80
01E07F80
01E07F80
1E0078F0
1E0078F0
1E0078F0
FE0078F0
F0007800
F0007800
F0007800
F0007800
F0007800
F0007800
F003F800
F003C000
F003C000
F003C000
1FFC0000
1FFC0000
1FFC0000
1FFC0000
00000000
00000000
00000000
ENDCHAR
STARTCHAR 3075
ENCODING 12405
SWIDTH 3360 0
DWIDTH 28 0
BBX 28 28 0 0
BITMAP
01FFC000
01FFC000
01FFC000
01FFC000
00000000
00000000
00000000
003C0000
003C0000
003C0000
1E3FC780
1E03C780
1E03C780
1E03C780
1E03C780
1E03C780
1E03C780
FE03C780
F003C780
F003C780
F003C780
01FC0000
01FC0000
01FC0000
01FC0000
00000000
00000000
00000000
ENDCHAR
STARTCHAR 3078
ENCODING 12408
SWIDTH 3360 0
DWIDTH 28 0
BBX 28 28 0 0
BITMAP
00000000
00000000
00000000
01E00000
01E00000
01E00000
01E00000
1E3C0000
1E3C0000
1E3C0000
FE3FC000
F003C000
F003C000
F003C000
00007800
00007800
00007800
00007F80
00000780
00000780
00000780
00000780
00000780
00000780
00000780
00000000
00000000
00000000
ENDCHAR
STARTCHAR 307b
ENCODING 12411
SWIDTH 3360 0
DWIDTH 28 0
BBX 28 28 0 0
BITMAP
F03FFF80
F03FFF80
F03FFF80
F03FFF80
F0007800
F0007800
F0007800
F03FFF80
F03FFF80
F03FFF80
F03FFF80
F0007800
F0007800
F0007800
F03FF800
F03FF800
F03FF800
F1FFFF80
F1E07F80
F1E07F80
F1E07F80
FE3FF800
FE3FF800
FE3FF800
FE3FF800
00000000
00000000
00000000
ENDCHAR
STARTCHAR 307e
ENCODING 12414
SWIDTH 3360 0
DWIDTH 28 0
BBX 28 28 0 0
BITMAP
003C0000
003C0000
003C0000
1FFFFF80
1FFFFF80
1FFFFF80
1FFFFF80
003C0000
003C0000
003C0000
1FFFFF80
1FFFFF80
1FFFFF80
1FFFFF80
003C0000
003C0000
003C0000
1FFC0000
1FFC0000
1FFC0000
1FFC0000
F03FF800
F03FF800
F03FF800
FFFFFF80
1FFC0780
1FFC0780
1FFC0780
ENDCHAR
STARTCHAR 307f
ENCODING 12415
SWIDTH 3360 0
DWIDTH 28 0
BBX 28 28 0 0
BITMAP
1FFC0000
1FFC0000
1FFC0000
1FFC0000
003C0000
003C0000
003C0000
003C7800
003C7800
003C7800
1FFFFF80
1FFFFF80
1FFFFF80
1FFFFF80
F03C7800
F03C7800
F03C7800
F03C7800
F03C7800
F03C7800
F03C7800
1FE07800
1FE07800
1FE07800
1FE07800
00000000
00000000
00000000
ENDCHAR
STARTCHAR 3080
ENCODING 12416
SWIDTH 3360 0
DWIDTH 28 0
BBX 28 28 0 0
BITMAP
01E00000
01E00000
01E00000
FFFFF8F0
FFFFF8F0
FFFFF8F0
FFFFF8F0
01E000F0
01E000F0
01E000F0
1FE000F0
1FE00000
1FE00000
1FE00000
F1E00000
F1E00000
F1E00000
FFE00780
1FE00780
1FE00780
1FE00780
01FFFF80
01FFFF80
01FFFF80
01FFFF80
00000000
00000000
00000000
ENDCHAR
STARTCHAR 3081
ENCODING 12417
SWIDTH 3360 0
DWIDTH 28 0
BBX 28 28 0 0
BITMAP
00007800
00007800
00007800
1E007800
1E007800
1E007800
1E007800
1FFFF800
1FFFF800
1FFFF800
1FFFFF80
1E03C780
1E03C780
1E03C780
F1FC0780
F1FC0780
F1FC0780
F1FC0780
F03C0780
F03C0780
F03C0780
1FE07800
1FE07800
1FE07800
1FE07800
00000000
00000000
00000000
ENDCHAR
STARTCHAR 3082
ENCODING 12418
SWIDTH 3360 0
DWIDTH 28 0
BBX 28 28 0 0
BITMAP
01E00000
01E00000
01E00000
FFFFC000
FFFFC000
FFFFC000
FFFFC000
01E00000
01E00000
01E00000
FFFFC000
FFFFC000
FFFFC000
FFFFC000
01E00780
01E00780
01E00780
01E00780
01E00780
01E00780
01E00780
003FF800
003FF800
003FF800
003FF800
00000000
00000000
00000000
ENDCHAR
STARTCHAR 3083
ENCODING 12419
SWIDTH 3360 0
DWIDTH 28 0
BBX 28 28 0 0
BITMAP
00000000
00000000
00000000
00000000
00000000
00000000
00000000
1E3FC000
1E3FC000
1E3FC000
FFFFF800
FFE07800
FFE07800
FFE07800
01E3C000
01E3C000
01E3C000
01E3C000
01E00000
01E00000
01E00000
003C0000
003C0000
003C0000
003C0000
00000000
00000000
00000000
ENDCHAR
STARTCHAR 3084
ENCODING 12420
SWIDTH 3360 0
DWIDTH 28 0
BBX 28 28 0 0
BITMAP
1E03C000
1E03C000
1E03C000
1E03F800
1E03F800
1E03F800
1E03F800
01FC0780
01FC0780
01FC0780
FFFC0780
FFE00780
FFE00780
FFE00780
01E07800
01E07800
01E07800
01FC7800
003C0000
003C0000
003C0000
003C0000
003C0000
003C0000
003FC000
0003C000
0003C000
0003C000
ENDCHAR
STARTCHAR 3085
ENCODING 12421
SWIDTH 3360 0
DWIDTH 28 0
BBX 28 28 0 0
BITMAP
00000000
00000000
00000000
00000000
00000000
00000000
00000000
003C0000
003C0000
003C0000
F1FFC000
F1FFC000
F1FFC000
F1FFC000
FE3C7800
FE3C7800
FE3C7800
FE3FF800
F03FC000
F03FC000
F03FC000
01FC0000
01FC0000
01FC0000
01FC0000
00000000
00000000
00000000
ENDCHAR
STARTCHAR 3086
ENCODING 12422
SWIDTH 3360 0
DWIDTH 28 0
BBX 28 28 0 0
BITMAP
0003C000
0003C000
0003C000
F03FF800
F03FF800
F03FF800
F03FF800
F1E3C780
F1E3C780
F1E3C780
FFE3C780
FE03C780
FE03C780
FE03C780
FE03C780
FE03C780
FE03C780
FE03FF80
F003F800
F003F800
F003F800
003FC000
003FC000
003FC000
003FC000
00000000
00000000
00000000
ENDCHAR
STARTCHAR 3087
ENCODING 12423
SWIDTH 3360 0
DWIDTH 28 0
BBX 28 28 0 0
BITMAP
00000000
00000000
00000000
00000000
00000000
00000000
00000000
01E00000
01E00000
01E00000
01FFC000
01FFC000
01FFC000
01FFC000
01E00000
01E00000
01E00000
1FFFC000
1FFFC000
1FFFC000
1FFFC000
1FE00000
1FE00000
1FE00000
1FE00000
00000000
00000000
00000000
ENDCHAR
STARTCHAR 3088
ENCODING 12424
SWIDTH 3360 0
DWIDTH 28 0
BBX 28 28 0 0
BITMAP
0003C000
0003C000
0003C000
0003FF80
0003FF80
0003FF80
0003FF80
0003C000
0003C000
0003C000
0003C000
0003C000
0003C000
0003C000
1FFFC000
1FFFC000
1FFFC000
FFFFFF80
F003FF80
F003FF80
F003FF80
1FFFC000
1FFFC000
1FFFC000
1FFFC000
00000000
00000000
00000000
ENDCHAR
STARTCHAR 3089
ENCODING 12425
SWIDTH 3360 0
DWIDTH 28 0
BBX 28 28 0 0
BITMAP
1FE00000
1FE00000
1FE00000
1FE00000
00000000
00000000
00000000
F03FF800
F03FF800
F03FF800
F1FFFF80
F1E00780
F1E00780
F1E00780
FE000780
FE000780
FE000780
FE000780
F0000780
F0000780
F0000780
003FF800
003FF800
003FF800
003FF800
00000000
00000000
00000000
ENDCHAR
STARTCHAR 308a
ENCODING 12426
SWIDTH 3360 0
DWIDTH 28 0
BBX 28 28 0 0
BITMAP
1E007800
1E007800
1E007800
1E007800
1E007800
1E007800
1E007800
1E007800
1E007800
1E007800
1FE07800
1FE07800
1FE07800
1FE07800
00007800
00007800
00007800
0003F800
0003C000
0003C000
0003C000
003C0000
003C0000
003C0000
003C0000
00000000
00000000
00000000
ENDCHAR
STARTCHAR 308b
ENCODING 12427
SWIDTH 3360 0
DWIDTH 28 0
BBX 28 28 0 0
BITMAP
1FFFF800
1FFFF800
1FFFF800
1FFFF800
0003C000
0003C000
0003C000
003C0000
003C0000
003C0000
01FFF800
01FFF800
01FFF800
01FFF800
1E000780
1E000780
1E000780
1E3FC780
003FC780
003FC780
003FC780
01E07800
01E07800
01E07800
01FFF800
003FC000
003FC000
003FC000
ENDCHAR
STARTCHAR 308c
ENCODING 12428
SWIDTH 3360 0
DWIDTH 28 0
BBX 28 28 0 0
BITMAP
01E00000
01E00000
01E00000
FFE07F80
FFE07F80
FFE07F80
FFE07F80
01E3F800
01E3F800
01E3F800
01FFF800
01FC7800
01FC7800
01FC7800
1FE07800
1FE07800
1FE07800
FFE07800
F1E07800
F1E07800
F1E07800
01E00780
01E00780
01E00780
01E00780
00000000
00000000
00000000
ENDCHAR
STARTCHAR 308d
ENCODING 12429
SWIDTH 3360 0
DWIDTH 28 0
BBX 28 28 0 0
BITMAP
1FFFF800
1FFFF800
1FFFF800
1FFFF800
0003C000
0003C000
0003C000
003C0000
003C0000
003C0000
01FFF800
01E3F800
01E3F800
01E3F800
1E000780
1E000780
1E000780
1E000780
00000780
00000780
00000780
01E07800
01E07800
01E07800
01FFF800
003FC000
003FC000
003FC000
ENDCHAR
STARTCHAR 308f
ENCODING 12431
SWIDTH 3360 0
DWIDTH 28 0
BBX 28 28 0 0
BITMAP
01E00000
01E00000
01E00000
FFE07800
FFE07800
FFE07800
FFE07800
01E3C780
01E3C780
01E3C780
01FFC780
01FC0780
01FC0780
01FC0780
1FE00780
1FE00780
1FE00780
FFE00780
F1E00780
F1E00780
F1E00780
01E07800
01E07800
01E07800
01E07800
00000000
00000000
00000000
ENDCHAR
STARTCHAR 3092
ENCODING 12434
SWIDTH 3360 0
DWIDTH 28 0
BBX 28 28 0 0
BITMAP
003C0000
003C0000
003C0000
FFFFFF80
FFFFFF80
FFFFFF80
FFFFFF80
01E00000
01E00000
01E00000
1FFC7800
1FFC7800
1FFC7800
1FFC7800
F1FFC000
F1FFC000
F1FFC000
FFFFC000
1E03C000
1E03C000
1E03C000
1FFFFF80
1FFFFF80
1FFFFF80
1FFFFF80
00000000
00000000
00000000
ENDCHAR
STARTCHAR 3093
ENCODING 12435
SWIDTH 3360 0
DWIDTH 28 0
BBX 28 28 0 0
BITMAP
003C0000
003C0000
003C0000
01FC0000
01E00000
01E00000
01E00000
01E00000
01E00000
01E00000
1FFC0000
1FFC0000
1FFC0000
1FFC0000
1E03C000
1E03C000
1E03C000
FE03C000
F003C000
F003C000
F003C000
F0007F80
F0007F80
F0007F80
F0007F80
00000000
00000000
00000000
ENDCHAR
STARTCHAR 309b
ENCODING 12443
SWIDTH 3360 0
DWIDTH 28 0
BBX 28 28 0 0
BITMAP
003C0000
003C0000
003C0000
1E3FC000
1E03C000
1E03C000
1E03C000
01E00000
01E00000
01E00000
01E00000
00000000
00000000
00000000
00000000
00000000
00000000
00000000
00000000
00000000
00000000
00000000
00000000
00000000
00000000
00000000
00000000
00000000
ENDCHAR
STARTCHAR 309c
ENCODING 12444
SWIDTH 3360 0
DWIDTH 28 0
BBX 28 28 0 0
BITMAP
1FFC0000
1FFC0000
1FFC0000
1FFC0000
1E3C0000
1E3C0000
1E3C0000
1FFC0000
1FFC0000
1FFC0000
1FFC0000
00000000
00000000
00000000
00000000
00000000
00000000
00000000
00000000
00000000
00000000
00000000
00000000
00000000
00000000
00000000
00000000
00000000
ENDCHAR
STARTCHAR 30a1
ENCODING 12449
SWIDTH 3360 0
DWIDTH 28 0
BBX 28 28 0 0
BITMAP
00000000
00000000
00000000
00000000
00000000
00000000
00000000
01FFFF80
01FFFF80
01FFFF80
01FFFF80
00000780
00000780
00000780
0003F800
0003F800
0003F800
0003F800
0003C000
0003C000
0003C000
003C0000
003C0000
003C0000
003C0000
00000000
00000000
00000000
ENDCHAR
STARTCHAR 30a2
ENCODING 12450
SWIDTH 3360 0
DWIDTH 28 0
BBX 28 28 0 0
BITMAP
01FFFF80
01FFFF80
01FFFF80
01FFFF80
00000780
00000780
00000780
0003C780
0003C780
0003C780
0003FF80
0003F800
0003F800
0003F800
0003C000
0003C000
0003C000
0003C000
0003C000
0003C000
0003C000
003C0000
003C0000
003C0000
003C0000
00000000
00000000
00000000
ENDCHAR
STARTCHAR 30a3
ENCODING 12451
SWIDTH 3360 0
DWIDTH 28 0
BBX 28 28 0 0
BITMAP
00000000
00000000
00000000
00000000
00000000
00000000
00000000
00007800
00007800
00007800
0003F800
0003C000
0003C000
0003C000
003FC000
003FC000
003FC000
01FFC000
01E3C000
01E3C000
01E3C000
0003C000
0003C000
0003C000
0003C000
00000000
00000000
00000000
ENDCHAR
STARTCHAR 30a4
ENCODING 12452
SWIDTH 3360 0
DWIDTH 28 0
BBX 28 28 0 0
BITMAP
00000780
00000780
00000780
00007F80
00007800
00007800
00007800
0003C000
0003C000
0003C000
003FC000
003FC000
003FC000
003FC000
01E3C000
01E3C000
01E3C000
01E3C000
0003C000
0003C000
0003C000
0003C000
0003C000
0003C000
0003C000
00000000
00000000
00000000
ENDCHAR
STARTCHAR 30a5
ENCODING 12453
SWIDTH 3360 0
DWIDTH 28 0
BBX 28 28 0 0
BITMAP
00000000
00000000
00000000
00000000
00000000
00000000
00000000
0003C000
0003C000
0003C000
01FFFF80
01FFFF80
01FFFF80
01FFFF80
01E00780
01E00780
01E00780
01E00780
00000780
00000780
00000780
0003F800
0003F800
0003F800
0003F800
00000000
00000000
00000000
ENDCHAR
STARTCHAR 30a6
ENCODING 12454
SWIDTH 3360 0
DWIDTH 28 0
BBX 28 28 0 0
BITMAP
0003C000
0003C000
0003C000
01FFFF80
01FFFF80
01FFFF80
01FFFF80
01E00780
01E00780
01E00780
01E00780
01E00780
01E00780
01E00780
00000780
00000780
00000780
00007F80
00007800
00007800
00007800
0003C000
0003C000
0003C000
0003C000
00000000
00000000
00000000
ENDCHAR
STARTCHAR 30a7
ENCODING 12455
SWIDTH 3360 0
DWIDTH 28 0
BBX 28 28 0 0
BITMAP
00000000
00000000
00000000
00000000
00000000
00000000
00000000
00000000
00000000
00000000
01FFFF80
01FFFF80
01FFFF80
01FFFF80
0003C000
0003C000
0003C000
0003C000
0003C000
0003C000
0003C000
01FFFF80
01FFFF80
01FFFF80
01FFFF80
00000000
00000000
00000000
ENDCHAR
STARTCHAR 30a8
ENCODING 12456
SWIDTH 3360 0
DWIDTH 28 0
BBX 28 28 0 0
BITMAP
00000000
00000000
00000000
01FFFF80
01FFFF80
01FFFF80
01FFFF80
0003C000
0003C000
0003C000
0003C000
0003C000
0003C000
0003C000
0003C000
0003C000
0003C000
0003C000
0003C000
0003C000
0003C000
01FFFF80
01FFFF80
01FFFF80
01FFFF80
00000000
00000000
00000000
ENDCHAR
STARTCHAR 30a9
ENCODING 12457
SWIDTH 3360 0
DWIDTH 28 0
BBX 28 28 0 0
BITMAP
00000000
00000000
00000000
00000000
00000000
00000000
00000000
00007800
00007800
00007800
01FFFF80
01FFFF80
01FFFF80
01FFFF80
0003F800
0003F800
0003F800
003FF800
003C7800
003C7800
003C7800
01E07800
01E07800
01E07800
01E07800
00000000
00000000
00000000
ENDCHAR
STARTCHAR 30aa
ENCODING 12458
SWIDTH 3360 0
DWIDTH 28 0
BBX 28 28 0 0
BITMAP
00007800
00007800
00007800
01FFFF80
01FFFF80
01FFFF80
01FFFF80
00007800
00007800
00007800
0003F800
0003F800
0003F800
0003F800
003C7800
003C7800
003C7800
01FC7800
01E07800
01E07800
01E07800
00007800
00007800
00007800
00007800
00000000
00000000
00000000
ENDCHAR
STARTCHAR 30ab
ENCODING 12459
SWIDTH 3360 0
DWIDTH 28 0
BBX 28 28 0 0
BITMAP
003C0000
003C0000
003C0000
01FFFF80
01FFFF80
01FFFF80
01FFFF80
003C0780
003C0780
003C0780
003C0780
003C0780
003C0780
003C0780
003C0780
003C0780
003C0780
003C0780
003C0780
003C0780
003C0780
01E07800
01E07800
01E07800
01E07800
00000000
00000000
00000000
ENDCHAR
STARTCHAR 30ad
ENCODING 12461
SWIDTH 3360 0
DWIDTH 28 0
BBX 28 28 0 0
BITMAP
0003C000
0003C000
0003C000
01FFFF80
01FFFF80
01FFFF80
01FFFF80
0003C000
0003C000
0003C000
01FFFF80
01FFFF80
01FFFF80
01FFFF80
0003C000
0003C000
0003C000
0003C000
0003C000
0003C000
0003C000
0003C000
0003C000
0003C000
0003C000
00000000
00000000
00000000
ENDCHAR
STARTCHAR 30af
ENCODING 12463
SWIDTH 3360 0
DWIDTH 28 0
BBX 28 28 0 0
BITMAP
00000000
00000000
00000000
003FFF80
003FFF80
003FFF80
003FFF80
003C0780
003C0780
003C0780
01FC0780
01E00780
01E00780
01E00780
00000780
00000780
00000780
00007F80
00007800
00007800
00007800
003FC000
003FC000
003FC000
003FC000
00000000
00000000
00000000
ENDCHAR
STARTCHAR 30b1
ENCODING 12465
SWIDTH 3360 0
DWIDTH 28 0
BBX 28 28 0 0
BITMAP
003C0000
003C0000
003C0000
003FFF80
003FFF80
003FFF80
003FFF80
01E07800
01E07800
01E07800
01E07800
00007800
00007800
00007800
00007800
00007800
00007800
00007800
00007800
00007800
00007800
0003C000
0003C000
0003C000
0003C000
00000000
00000000
00000000
ENDCHAR
STARTCHAR 30b3
ENCODING 12467
SWIDTH 3360 0
DWIDTH 28 0
BBX 28 28 0 0
BITMAP
00000000
00000000
00000000
01FFFF80
01FFFF80
01FFFF80
01FFFF80
00000780
00000780
00000780
00000780
00000780
00000780
00000780
00000780
00000780
00000780
00000780
00000780
00000780
00000780
01FFFF80
01FFFF80
01FFFF80
01FFFF80
00000000
00000000
00000000
ENDCHAR
STARTCHAR 30b5
ENCODING 12469
SWIDTH 3360 0
DWIDTH 28 0
BBX 28 28 0 0
BITMAP
003C7800
003C7800
003C7800
01FFFF80
01FFFF80
01FFFF80
01FFFF80
003C7800
003C7800
003C7800
003C7800
003C7800
003C7800
003C7800
00007800
00007800
00007800
0003F800
0003C000
0003C000
0003C000
003C0000
003C0000
003C0000
003C0000
00000000
00000000
00000000
ENDCHAR
STARTCHAR 30b7
ENCODING 12471
SWIDTH 3360 0
DWIDTH 28 0
BBX 28 28 0 0
BITMAP
00000000
00000000
00000000
01FC0000
01FC0000
01FC0000
01FC0000
00000780
00000780
00000780
01FC0780
01FC0780
01FC0780
01FC0780
00000780
00000780
00000780
00007F80
00007800
00007800
00007800
01FFC000
01FFC000
01FFC000
01FFC000
00000000
00000000
00000000
ENDCHAR
STARTCHAR 30b9
ENCODING 12473
SWIDTH 3360 0
DWIDTH 28 0
BBX 28 28 0 0
BITMAP
00000000
00000000
00000000
01FFFF80
01FFFF80
01FFFF80
01FFFF80
00000780
00000780
00000780
00007F80
00007800
00007800
00007800
0003C000
0003C000
0003C000
003FF800
003C7800
003C7800
003C7800
01E00780
01E00780
01E00780
01E00780
00000000
00000000
00000000
ENDCHAR
STARTCHAR 30bb
ENCODING 12475
SWIDTH 3360 0
DWIDTH 28 0
BBX 28 28 0 0
BITMAP
003C0000
003C0000
003C0000
01FFFF80
01FFFF80
01FFFF80
01FFFF80
003C0780
003C0780
003C0780
003C7F80
003C7800
003C7800
003C7800
003C0000
003C0000
003C0000
003C0000
003C0000
003C0000
003C0000
0003FF80
0003FF80
0003FF80
0003FF80
00000000
00000000
00000000
ENDCHAR
STARTCHAR 30bd
ENCODING 12477
SWIDTH 3360 0
DWIDTH 28 0
BBX 28 28 0 0
BITMAP
00000000
00000000
00000000
01E00780
01E00780
01E00780
01E00780
01E00780
01E00780
01E00780
01FC0780
003C0780
003C0780
003C0780
00000780
00000780
00000780
00007F80
00007800
00007800
00007800
003FC000
003FC000
003FC000
003FC000
00000000
00000000
00000000
ENDCHAR
STARTCHAR 30bf
ENCODING 12479
SWIDTH 3360 0
DWIDTH 28 0
BBX 28 28 0 0
BITMAP
00000000
00000000
00000000
003FFF80
003FFF80
003FFF80
003FFF80
003C0780
003C0780
003C0780
01FFC780
01E3C780
01E3C780
01E3C780
00007F80
00007F80
00007F80
00007F80
00007800
00007800
00007800
003FC000
003FC000
003FC000
003FC000
00000000
00000000
00000000
ENDCHAR
STARTCHAR 30c1
ENCODING 12481
SWIDTH 3360 0
DWIDTH 28 0
BBX 28 28 0 0
BITMAP
00007800
00007800
00007800
01FFF800
01FFC000
01FFC000
01FFC000
0003C000
0003C000
0003C000
01FFFF80
01FFFF80
01FFFF80
01FFFF80
0003C000
0003C000
0003C000
0003C000
0003C000
0003C000
0003C000
003C0000
003C0000
003C0000
003C0000
00000000
00000000
00000000
ENDCHAR
STARTCHAR 30c3
ENCODING 12483
SWIDTH 3360 0
DWIDTH 28 0
BBX 28 28 0 0
BITMAP
00000000
00000000
00000000
00000000
00000000
00000000
00000000
00000000
00000000
00000000
01E3C780
01E3C780
01E3C780
01E3C780
01E3C780
01E3C780
01E3C780
01E3C780
00000780
00000780
00000780
0003F800
0003F800
0003F800
0003F800
00000000
00000000
00000000
ENDCHAR
STARTCHAR 30c4
ENCODING 12484
SWIDTH 3360 0
DWIDTH 28 0
BBX 28 28 0 0
BITMAP
00000000
00000000
00000000
01E3C780
01E3C780
01E3C780
01E3C780
01E3C780
01E3C780
01E3C780
01E3C780
01E3C780
01E3C780
01E3C780
00000780
00000780
00000780
00007F80
00007800
00007800
00007800
0003C000
0003C000
0003C000
0003C000
00000000
00000000
00000000
ENDCHAR
STARTCHAR 30c6
ENCODING 12486
SWIDTH 3360 0
DWIDTH 28 0
BBX 28 28 0 0
BITMAP
003FF800
003FF800
003FF800
003FF800
00000000
00000000
00000000
01FFFF80
01FFFF80
01FFFF80
01FFFF80
0003C000
0003C000
0003C000
0003C000
0003C000
0003C000
0003C000
0003C000
0003C000
0003C000
003C0000
003C0000
003C0000
003C0000
00000000
00000000
00000000
ENDCHAR
STARTCHAR 30c8
ENCODING 12488
SWIDTH 3360 0
DWIDTH 28 0
BBX 28 28 0 0
BITMAP
003C0000
003C0000
003C0000
003C0000
003C0000
003C0000
003C0000
003C0000
003C0000
003C0000
003FC000
003FC000
003FC000
003FC000
003C7800
003C7800
003C7800
003C7800
003C0000
003C0000
003C0000
003C0000
003C0000
003C0000
003C0000
00000000
00000000
00000000
ENDCHAR
STARTCHAR 30ca
ENCODING 12490
SWIDTH 3360 0
DWIDTH 28 0
BBX 28 28 0 0
BITMAP
0003C000
0003C000
0003C000
0003C000
0003C000
0003C000
0003C000
01FFFF80
01FFFF80
01FFFF80
01FFFF80
0003C000
0003C000
0003C000
0003C000
0003C000
0003C000
003FC000
003C0000
003C0000
003C0000
01E00000
01E00000
01E00000
01E00000
00000000
00000000
00000000
ENDCHAR
STARTCHAR 30cb
ENCODING 12491
SWIDTH 3360 0
DWIDTH 28 0
BBX 28 28 0 0
BITMAP
00000000
00000000
00000000
003FF800
003FF800
003FF800
003FF800
00000000
00000000
00000000
00000000
00000000
00000000
00000000
00000000
00000000
00000000
00000000
00000000
00000000
00000000
01FFFF80
01FFFF80
01FFFF80
01FFFF80
00000000
00000000
00000000
ENDCHAR
STARTCHAR 30cc
ENCODING 12492
SWIDTH 3360 0
DWIDTH 28 0
BBX 28 28 0 0
BITMAP
00000000
00000000
00000000
01FFFF80
01FFFF80
01FFFF80
01FFFF80
00000780
00000780
00000780
003C7F80
003C7800
003C7800
003C7800
0003C000
0003C000
0003C000
003FF800
003C7800
003C7800
003C7800
01E00000
01E00000
01E00000
01E00000
00000000
00000000
00000000
ENDCHAR
STARTCHAR 30cd
ENCODING 12493
SWIDTH 3360 0
DWIDTH 28 0
BBX 28 28 0 0
BITMAP
0003C000
0003C000
0003C000
01FFFF80
01FFFF80
01FFFF80
01FFFF80
00007800
00007800
00007800
0003F800
0003C000
0003C000
0003C000
003FF800
003FF800
003FF800
01FFFF80
01E3C780
01E3C780
01E3C780
0003C000
0003C000
0003C000
0003C000
00000000
00000000
00000000
ENDCHAR
STARTCHAR 30ce
ENCODING 12494
SWIDTH 3360 0
DWIDTH 28 0
BBX 28 28 0 0
BITMAP
00007800
00007800
00007800
00007800
00007800
00007800
00007800
00007800
00007800
00007800
00007800
00007800
00007800
00007800
00007800
00007800
00007800
0003F800
0003C000
0003C000
0003C000
003C0000
003C0000
003C0000
003C0000
00000000
00000000
00000000
ENDCHAR
STARTCHAR 30cf
ENCODING 12495
SWIDTH 3360 0
DWIDTH 28 0
BBX 28 28 0 0
BITMAP
00000000
00000000
00000000
0003C000
0003C000
0003C000
0003C000
00007800
00007800
00007800
01E07F80
01E00780
01E00780
01E00780
01E00780
01E00780
01E00780
01E00780
01E00780
01E00780
01E00780
01E00780
01E00780
01E00780
01E00780
00000000
00000000
00000000
ENDCHAR
STARTCHAR 30d2
ENCODING 12498
SWIDTH 3360 0
DWIDTH 28 0
BBX 28 28 0 0
BITMAP
01E00000
01E00000
01E00000
01E00000
01E00000
01E00000
01E00000
01FFFF80
01FFFF80
01FFFF80
01FFFF80
01E00000
01E00000
01E00000
01E00000
01E00000
01E00000
01E00000
01E00000
01E00000
01E00000
003FFF80
003FFF80
003FFF80
003FFF80
00000000
00000000
00000000
ENDCHAR
STARTCHAR 30d5
ENCODING 12501
SWIDTH 3360 0
DWIDTH 28 0
BBX 28 28 0 0
BITMAP
00000000
00000000
00000000
01FFFF80
01FFFF80
01FFFF80
01FFFF80
00000780
00000780
00000780
00000780
00000780
00000780
00000780
00000780
00000780
00000780
00007F80
00007800
00007800
00007800
003FC000
003FC000
003FC000
003FC000
00000000
00000000
00000000
ENDCHAR
STARTCHAR 30d8
ENCODING 12504
SWIDTH 3360 0
DWIDTH 28 0
BBX 28 28 0 0
BITMAP
00000000
00000000
00000000
003C0000
003C0000
003C0000
003C0000
01E3C000
01E3C000
01E3C000
01E3F800
00007800
00007800
00007800
00000780
00000780
00000780
00000780
00000780
00000780
00000780
00000000
00000000
00000000
00000000
00000000
00000000
00000000
ENDCHAR
STARTCHAR 30db
ENCODING 12507
SWIDTH 3360 0
DWIDTH 28 0
BBX 28 28 0 0
BITMAP
0003C000
0003C000
0003C000
01FFFF80
01FFFF80
01FFFF80
01FFFF80
0003C000
0003C000
0003C000
0003C000
0003C000
0003C000
0003C000
01E3C780
01E3C780
01E3C780
01E3C780
01E3C780
01E3C780
01E3C780
0003C000
0003C000
0003C000
0003C000
00000000
00000000
00000000
ENDCHAR
STARTCHAR 30de
ENCODING 12510
SWIDTH 3360 0
DWIDTH 28 0
BBX 28 28 0 0
BITMAP
00000000
00000000
00000000
01FFFF80
01FFFF80
01FFFF80
01FFFF80
00000780
00000780
00000780
00000780
00000780
00000780
00000780
003C7800
003C7800
003C7800
003FF800
0003C000
0003C000
0003C000
00007800
00007800
00007800
00007800
00000000
00000000
00000000
ENDCHAR
STARTCHAR 30df
ENCODING 12511
SWIDTH 3360 0
DWIDTH 28 0
BBX 28 28 0 0
BITMAP
00000000
00000000
00000000
003FF800
003FF800
003FF800
003FF800
00000000
00000000
00000000
003FF800
003FF800
003FF800
003FF800
00000000
00000000
00000000
01FFF800
01FFF800
01FFF800
01FFF800
00000780
00000780
00000780
00000780
00000000
00000000
00000000
ENDCHAR
STARTCHAR 30e0
ENCODING 12512
SWIDTH 3360 0
DWIDTH 28 0
BBX 28 28 0 0
BITMAP
00000000
00000000
00000000
0003C000
0003C000
0003C000
0003C000
003C0000
003C0000
003C0000
01FC0000
01E00000
01E00000
01E00000
01E00780
01E00780
01E00780
01FFFF80
01FFFF80
01FFFF80
01FFFF80
00000780
00000780
00000780
00000780
00000000
00000000
00000000
ENDCHAR
STARTCHAR 30e1
ENCODING 12513
SWIDTH 3360 0
DWIDTH 28 0
BBX 28 28 0 0
BITMAP
00000000
00000000
00000000
00000780
00000780
00000780
00000780
00000780
00000780
00000780
003C7F80
003C7800
003C7800
003C7800
0003C000
0003C000
0003C000
003FF800
003C7800
003C7800
003C7800
01E00000
01E00000
01E00000
01E00000
00000000
00000000
00000000
ENDCHAR
STARTCHAR 30e2
ENCODING 12514
SWIDTH 3360 0
DWIDTH 28 0
BBX 28 28 0 0
BITMAP
00000000
00000000
00000000
01FFFF80
01FFFF80
01FFFF80
01FFFF80
003C0000
003C0000
003C0000
01FFFF80
01FFFF80
01FFFF80
01FFFF80
003C0000
003C0000
003C0000
003C0000
003C0000
003C0000
003C0000
0003FF80
0003FF80
0003FF80
0003FF80
00000000
00000000
00000000
ENDCHAR
STARTCHAR 30e3
ENCODING 12515
SWIDTH 3360 0
DWIDTH 28 0
BBX 28 28 0 0
BITMAP
00000000
00000000
00000000
00000000
00000000
00000000
00000000
003C0000
003C0000
003C0000
01FFFF80
01FFFF80
01FFFF80
01FFFF80
003C0780
003C0780
003C0780
003C7F80
003C7800
003C7800
003C7800
003C0000
003C0000
003C0000
003C0000
00000000
00000000
00000000
ENDCHAR
STARTCHAR 30e4
ENCODING 12516
SWIDTH 3360 0
DWIDTH 28 0
BBX 28 28 0 0
BITMAP
003C0000
003C0000
003C0000
003C0000
003C0000
003C0000
003C0000
01FFFF80
01FFFF80
01FFFF80
01FFFF80
003C0780
003C0780
003C0780
003C7800
003C7800
003C7800
003C7800
003C0000
003C0000
003C0000
003C0000
003C0000
003C0000
003C0000
00000000
00000000
00000000
ENDCHAR
STARTCHAR 30e5
ENCODING 12517
SWIDTH 3360 0
DWIDTH 28 0
BBX 28 28 0 0
BITMAP
00000000
00000000
00000000
00000000
00000000
00000000
00000000
00000000
00000000
00000000
003FF800
003FF800
003FF800
003FF800
00007800
00007800
00007800
00007800
00007800
00007800
00007800
01FFFF80
01FFFF80
01FFFF80
01FFFF80
00000000
00000000
00000000
ENDCHAR
STARTCHAR 30e6
ENCODING 12518
SWIDTH 3360 0
DWIDTH 28 0
BBX 28 28 0 0
BITMAP
00000000
00000000
00000000
003FF800
003FF800
003FF800
003FF800
00007800
00007800
00007800
00007800
00007800
00007800
00007800
00007800
00007800
00007800
00007800
00007800
00007800
00007800
01FFFF80
01FFFF80
01FFFF80
01FFFF80
00000000
00000000
00000000
ENDCHAR
STARTCHAR 30e7
ENCODING 12519
SWIDTH 3360 0
DWIDTH 28 0
BBX 28 28 0 0
BITMAP
00000000
00000000
00000000
00000000
00000000
00000000
00000000
01FFF800
01FFF800
01FFF800
01FFF800
00007800
00007800
00007800
01FFF800
01FFF800
01FFF800
01FFF800
00007800
00007800
00007800
01FFF800
01FFF800
01FFF800
01FFF800
00000000
00000000
00000000
ENDCHAR
STARTCHAR 30e8
ENCODING 12520
SWIDTH 3360 0
DWIDTH 28 0
BBX 28 28 0 0
BITMAP
00000000
00000000
00000000
01FFFF80
01FFFF80
01FFFF80
01FFFF80
00000780
00000780
00000780
01FFFF80
01FFFF80
01FFFF80
01FFFF80
00000780
00000780
00000780
00000780
00000780
00000780
00000780
01FFFF80
01FFFF80
01FFFF80
01FFFF80
00000000
00000000
00000000
ENDCHAR
STARTCHAR 30e9
ENCODING 12521
SWIDTH 3360 0
DWIDTH 28 0
BBX 28 28 0 0
BITMAP
003FF800
003FF800
003FF800
003FF800
00000000
00000000
00000000
01FFFF80
01FFFF80
01FFFF80
01FFFF80
00000780
00000780
00000780
00000780
00000780
00000780
00007F80
00007800
00007800
00007800
0003C000
0003C000
0003C000
0003C000
00000000
00000000
00000000
ENDCHAR
STARTCHAR 30ea
ENCODING 12522
SWIDTH 3360 0
DWIDTH 28 0
BBX 28 28 0 0
BITMAP
01E07800
01E07800
01E07800
01E07800
01E07800
01E07800
01E07800
01E07800
01E07800
01E07800
01E07800
01E07800
01E07800
01E07800
00007800
00007800
00007800
0003F800
0003C000
0003C000
0003C000
003C0000
003C0000
003C0000
003C0000
00000000
00000000
00000000
ENDCHAR
STARTCHAR 30eb
ENCODING 12523
SWIDTH 3360 0
DWIDTH 28 0
BBX 28 28 0 0
BITMAP
00000000
00000000
00000000
0003C000
0003C000
0003C000
0003C000
01E3C000
01E3C000
01E3C000
01E3C000
01E3C000
01E3C000
01E3C000
01E3C780
01E3C780
01E3C780
01E3C780
01E3C780
01E3C780
01E3C780
01E3F800
01E3F800
01E3F800
01E3F800
00000000
00000000
00000000
ENDCHAR
STARTCHAR 30ec
ENCODING 12524
SWIDTH 3360 0
DWIDTH 28 0
BBX 28 28 0 0
BITMAP
00000000
00000000
00000000
01E00000
01E00000
01E00000
01E00000
01E00000
01E00000
01E00000
01E00780
01E00780
01E00780
01E00780
01E07800
01E07800
01E07800
01E3F800
01E3C000
01E3C000
01E3C000
01FC0000
01FC0000
01FC0000
01FC0000
00000000
00000000
00000000
ENDCHAR
STARTCHAR 30ed
ENCODING 12525
SWIDTH 3360 0
DWIDTH 28 0
BBX 28 28 0 0
BITMAP
00000000
00000000
00000000
01FFFF80
01FFFF80
01FFFF80
01FFFF80
01E00780
01E00780
01E00780
01E00780
01E00780
01E00780
01E00780
01E00780
01E00780
01E00780
01E00780
01E00780
01E00780
01E00780
01FFFF80
01FFFF80
01FFFF80
01FFFF80
00000000
00000000
00000000
ENDCHAR
STARTCHAR 30ef
ENCODING 12527
SWIDTH 3360 0
DWIDTH 28 0
BBX 28 28 0 0
BITMAP
00000000
00000000
00000000
01FFFF80
01FFFF80
01FFFF80
01FFFF80
01E00780
01E00780
01E00780
01E00780
01E00780
01E00780
01E00780
00000780
00000780
00000780
00007F80
00007800
00007800
00007800
0003C000
0003C000
0003C000
0003C000
00000000
00000000
00000000
ENDCHAR
STARTCHAR 30f2
ENCODING 12530
SWIDTH 3360 0
DWIDTH 28 0
BBX 28 28 0 0
BITMAP
00000000
00000000
00000000
01FFFF80
01FFFF80
01FFFF80
01FFFF80
00000780
00000780
00000780
01FFFF80
01FFFF80
01FFFF80
01FFFF80
00000780
00000780
00000780
00007F80
00007800
00007800
00007800
0003C000
0003C000
0003C000
0003C000
00000000
00000000
00000000
ENDCHAR
STARTCHAR 30f3
ENCODING 12531
SWIDTH 3360 0
DWIDTH 28 0
BBX 28 28 0 0
BITMAP
00000000
00000000
00000000
01FC0000
01FC0000
01FC0000
01FC0000
00000000
00000000
00000000
00000780
00000780
00000780
00000780
00000780
00000780
00000780
00007F80
00007800
00007800
00007800
01FFC000
01FFC000
01FFC000
01FFC000
00000000
00000000
00000000
ENDCHAR
STARTCHAR 30fb
ENCODING 12539
SWIDTH 3360 0
DWIDTH 28 0
BBX 28 28 0 0
BITMAP
00000000
00000000
00000000
00000000
00000000
00000000
00000000
00000000
00000000
00000000
00000000
00000000
00000000
00000000
00000000
00000000
00000000
00000000
00000000
00000000
00000000
01E00000
01E00000
01E00000
01E00000
00000000
00000000
00000000
ENDCHAR
STARTCHAR 30fc
ENCODING 12540
SWIDTH 3360 0
DWIDTH 28 0
BBX 28 28 0 0
BITMAP
00000000
00000000
00000000
00000000
00000000
00000000
00000000
00000000
00000000
00000000
003FF800
003FF800
003FF800
003FF800
00000000
00000000
00000000
00000000
00000000
00000000
00000000
00000000
00000000
00000000
00000000
00000000
00000000
00000000
ENDCHAR
STARTCHAR 4eba
ENCODING 20154
SWIDTH 3360 0
DWIDTH 28 0
BBX 28 28 0 0
BITMAP
003FF800
003FF800
003FF800
003FF800
003FF800
003FF800
003FF800
0003C000
0003C000
0003C000
01FFFF80
01FFFF80
01FFFF80
01FFFF80
0003C000
0003C000
0003C000
0003C000
0003C000
0003C000
0003C000
003C7800
003C7800
003C7800
01FC7F80
01E00780
01E00780
01E00780
ENDCHAR
STARTCHAR 5012
ENCODING 20498
SWIDTH 3360 0
DWIDTH 28 0
BBX 28 28 0 0
BITMAP
00000000
00000000
00000000
F003C000
F003C000
F003C000
F003C000
1E03C7F0
1E03C7F0
1E03C7F0
1FFFFFF0
01FFFFF0
01FFFFF0
01FFFFF0
1E03C7F0
1E03C7F0
1E03C7F0
FE03C7F0
F003C000
F003C000
F003C000
00000000
00000000
00000000
00000000
00000000
00000000
00000000
ENDCHAR
STARTCHAR 516b
ENCODING 20843
SWIDTH 3360 0
DWIDTH 28 0
BBX 28 28 0 0
BITMAP
00000000
00000000
00000000
003C00F0
003C00F0
003C00F0
003C00F0
FE3C0780
FE3C0780
FE3C0780
FFFFFF80
FFFFF800
FFFFF800
FFFFF800
FE3C0780
FE3C0780
FE3C0780
FE3C07F0
003C00F0
003C00F0
003C00F0
00000000
00000000
00000000
00000000
00000000
00000000
00000000
ENDCHAR
STARTCHAR 5186
ENCODING 20870
SWIDTH 3360 0
DWIDTH 28 0
BBX 28 28 0 0
BITMAP
1FFFFFF0
1FFFFFF0
1FFFFFF0
1FFFFFF0
1E03C0F0
1E03C0F0
1E03C0F0
1E03C0F0
1E03C0F0
1E03C0F0
1FFFFFF0
1FFFFFF0
1FFFFFF0
1FFFFFF0
1E0000F0
1E0000F0
1E0000F0
1E0000F0
1E0000F0
1E0000F0
1E0000F0
1E0000F0
1E0000F0
1E0000F0
1E0000F0
00000000
00000000
00000000
ENDCHAR
STARTCHAR 5206
ENCODING 20998
SWIDTH 3360 0
DWIDTH 28 0
BBX 28 28 0 0
BITMAP
0003C000
0003C000
0003C000
003FF800
003C7800
003C7800
003C7800
01E00780
01E00780
01E00780
1FFFFFF0
1FFFFFF0
1FFFFFF0
1FFFFFF0
003C0780
003C0780
003C0780
003C0780
003C0780
003C0780
003C0780
01E07800
01E07800
01E07800
01E07800
00000000
00000000
00000000
ENDCHAR
STARTCHAR 53cd
ENCODING 21453
SWIDTH 3360 0
DWIDTH 28 0
BBX 28 28 0 0
BITMAP
F003C000
F003C000
F003C000
F03FC000
F03C0000
F03C0000
F03C0000
F1E00000
F1E00000
F1E00000
FFE00000
FE000000
FE000000
FE000000
FE000000
FE000000
FE000000
FFE3C000
F1E3C000
F1E3C000
F1E3C000
F03FC000
F03FC000
F03FC000
F1FFC000
F1FFC000
F1FFC000
F1FFC000
ENDCHAR
STARTCHAR 571f
ENCODING 22303
SWIDTH 3360 0
DWIDTH 28 0
BBX 28 28 0 0
BITMAP
00000000
00000000
00000000
0003C000
0003C000
0003C000
0003C000
0003C000
0003C000
0003C000
01FFFF80
01FFFF80
01FFFF80
01FFFF80
0003C000
0003C000
0003C000
0003C000
0003C000
0003C000
0003C000
1FFFFFF0
1FFFFFF0
1FFFFFF0
1FFFFFF0
00000000
00000000
00000000
ENDCHAR
STARTCHAR 5c04
ENCODING 23556
SWIDTH 3360 0
DWIDTH 28 0
BBX 28 28 0 0
BITMAP
F1E3C000
F1E3C000
F1E3C000
F1FFC000
F1FC0000
F1FC0000
F1FC0000
F1FFC000
F1FFC000
F1FFC000
FFFFC000
FE000000
FE000000
FE000000
FE000000
FE000000
FE000000
FFE00000
F1E00000
F1E00000
F1E00000
F03C0000
F03C0000
F03C0000
F03FC000
F003C000
F003C000
F003C000
ENDCHAR
STARTCHAR 5e74
ENCODING 24180
SWIDTH 3360 0
DWIDTH 28 0
BBX 28 28 0 0
BITMAP
01E00000
01E00000
01E00000
01FFFF80
01FFFF80
01FFFF80
01FFFF80
1E03C000
1E03C000
1E03C000
1FFFF800
01FFF800
01FFF800
01FFF800
01E3C000
01E3C000
01E3C000
1FFFFF80
1FFFFF80
1FFFFF80
1FFFFF80
0003C000
0003C000
0003C000
0003C000
00000000
00000000
00000000
ENDCHAR
STARTCHAR 62bc
ENCODING 25276
SWIDTH 3360 0
DWIDTH 28 0
BBX 28 28 0 0
BITMAP
003FF800
003FF800
003FF800
003FF800
003FF800
003FF800
003FF800
01FFFF80
01FFFF80
01FFFF80
01FFFF80
003FF800
003FF800
003FF800
0003C000
0003C000
0003C000
0003C000
00000000
00000000
00000000
01FFFF80
01FFFF80
01FFFF80
01FFFF80
00000000
00000000
00000000
ENDCHAR
STARTCHAR 65e5
ENCODING 26085
SWIDTH 3360 0
DWIDTH 28 0
BBX 28 28 0 0
BITMAP
01FFFF80
01FFFF80
01FFFF80
01FFFF80
01E00780
01E00780
01E00780
01E00780
01E00780
01E00780
01FFFF80
01FFFF80
01FFFF80
01FFFF80
01E00780
01E00780
01E00780
01E00780
01E00780
01E00780
01E00780
01FFFF80
01FFFF80
01FFFF80
01FFFF80
00000000
00000000
00000000
ENDCHAR
STARTCHAR 661f
ENCODING 26143
SWIDTH 3360 0
DWIDTH 28 0
BBX 28 28 0 0
BITMAP
00000000
00000000
00000000
01E007F0
01E007F0
01E007F0
01E007F0
01E078F0
01E078F0
01E078F0
01E3F8F0
01E3C0F0
01E3C0F0
01E3C0F0
FFFC00F0
FFFC00F0
FFFC00F0
FFFFC0F0
01E3C0F0
01E3C0F0
01E3C0F0
01E078F0
01E078F0
01E078F0
01E07FF0
01E007F0
01E007F0
01E007F0
ENDCHAR
STARTCHAR 6642
ENCODING 26178
SWIDTH 3360 0
DWIDTH 28 0
BBX 28 28 0 0
BITMAP
00007800
00007800
00007800
1FFFFF80
1FFFFF80
1FFFFF80
1FFFFF80
1E3C7800
1E3C7800
1E3C7800
1FFFFFF0
1FFFFFF0
1FFFFFF0
1FFFFFF0
1E3C0780
1E3C0780
1E3C0780
1FFFFFF0
1FFFFFF0
1FFFFFF0
1FFFFFF0
0003C780
0003C780
0003C780
0003C780
00000000
00000000
00000000
ENDCHAR
STARTCHAR 6708
ENCODING 26376
SWIDTH 3360 0
DWIDTH 28 0
BBX 28 28 0 0
BITMAP
01FFFF80
01FFFF80
01FFFF80
01FFFF80
01E00780
01E00780
01E00780
01FFFF80
01FFFF80
01FFFF80
01FFFF80
01E00780
01E00780
01E00780
01FFFF80
01FFFF80
01FFFF80
01FFFF80
01E00780
01E00780
01E00780
1E000780
1E000780
1E000780
1E000780
00000000
00000000
00000000
ENDCHAR
STARTCHAR 6728
ENCODING 26408
SWIDTH 3360 0
DWIDTH 28 0
BBX 28 28 0 0
BITMAP
0003C000
0003C000
0003C000
0003C000
0003C000
0003C000
0003C000
01FFFF80
01FFFF80
01FFFF80
01FFFF80
0003C000
0003C000
0003C000
003FF800
003FF800
003FF800
01FFFF80
01E3C780
01E3C780
01E3C780
1E03C0F0
1E03C0F0
1E03C0F0
1E03C0F0
00000000
00000000
00000000
ENDCHAR
STARTCHAR 672a
ENCODING 26410
SWIDTH 3360 0
DWIDTH 28 0
BBX 28 28 0 0
BITMAP
003FC000
003FC000
003FC000
01FFF800
01E07800
01E07800
01E07800
1FFFFF80
1FFFFF80
1FFFFF80
FFFFFFF0
FFFFFFF0
FFFFFFF0
FFFFFFF0
1E3FC780
1E3FC780
1E3FC780
1FFFFF80
01E07800
01E07800
01E07800
00000000
00000000
00000000
00000000
00000000
00000000
00000000
ENDCHAR
STARTCHAR 6a2a
ENCODING 27178
SWIDTH 3360 0
DWIDTH 28 0
BBX 28 28 0 0
BITMAP
FFE00000
FFE00000
FFE00000
FFE07FF0
1E007FF0
1E007FF0
1E007FF0
1E000780
1E000780
1E000780
1FFFFF80
1FFFFF80
1FFFFF80
1FFFFF80
1E000780
1E000780
1E000780
1E007FF0
1E007FF0
1E007FF0
1E007FF0
FFE00000
FFE00000
FFE00000
FFE00000
00000000
00000000
00000000
ENDCHAR
STARTCHAR 6c34
ENCODING 27700
SWIDTH 3360 0
DWIDTH 28 0
BBX 28 28 0 0
BITMAP
0003C000
0003C000
0003C000
0003C0F0
0003C0F0
0003C0F0
0003C0F0
01FFC780
01FFC780
01FFC780
01FFFF80
0003F800
0003F800
0003F800
003FF800
003FF800
003FF800
01FFFF80
01E3C780
01E3C780
01E3C780
1E03C0F0
1E03C0F0
1E03C0F0
1E03C0F0
00000000
00000000
00000000
ENDCHAR
STARTCHAR 6c60
ENCODING 27744
SWIDTH 3360 0
DWIDTH 28 0
BBX 28 28 0 0
BITMAP
0003C000
0003C000
0003C000
0003C000
0003C000
0003C000
0003C000
01FFFF80
01FFFF80
01FFFF80
01FFFF80
00000000
00000000
00000000
00000000
00000000
00000000
01FFFF80
01FFFF80
01FFFF80
01FFFF80
0003C000
0003C000
0003C000
0003C000
0003C000
0003C000
0003C000
ENDCHAR
STARTCHAR 706b
ENCODING 28779
SWIDTH 3360 0
DWIDTH 28 0
BBX 28 28 0 0
BITMAP
0003C000
0003C000
0003C000
01E3C780
01E3C780
01E3C780
01E3C780
01E3C780
01E3C780
01E3C780
01E3C780
0003C000
0003C000
0003C000
003C7800
003C7800
003C7800
01FC7F80
01E00780
01E00780
01E00780
1E0000F0
1E0000F0
1E0000F0
1E0000F0
00000000
00000000
00000000
ENDCHAR
STARTCHAR 751f
ENCODING 29983
SWIDTH 3360 0
DWIDTH 28 0
BBX 28 28 0 0
BITMAP
0003C000
0003C000
0003C000
1E03C000
1E03C000
1E03C000
1E03C000
1FFFFF80
1FFFFF80
1FFFFF80
1FFFFF80
1E03C000
1E03C000
1E03C000
01FFFF80
01FFFF80
01FFFF80
01FFFF80
0003C000
0003C000
0003C000
1FFFFFF0
1FFFFFF0
1FFFFFF0
1FFFFFF0
00000000
00000000
00000000
ENDCHAR
STARTCHAR 79d2
ENCODING 31186
SWIDTH 3360 0
DWIDTH 28 0
BBX 28 28 0 0
BITMAP
01FFC000
01FFC000
01FFC000
01FFC780
003C0780
003C0780
003C0780
1FFFFFF0
1FFFFFF0
1FFFFFF0
1FFFFFF0
003C7FF0
003C7FF0
003C7FF0
01FFC7F0
01FFC7F0
01FFC7F0
1FFFC7F0
1E3C0780
1E3C0780
1E3C0780
003C7800
003C7800
003C7800
003C7800
00000000
00000000
00000000
ENDCHAR
STARTCHAR 86c7
ENCODING 34503
SWIDTH 3360 0
DWIDTH 28 0
BBX 28 28 0 0
BITMAP
00000000
00000000
00000000
FE000000
FE000000
FE000000
FE000000
FE03C000
FE03C000
FE03C000
FE3FF800
1E3C7800
1E3C7800
1E3C7800
1E3C7800
1E3C7800
1E3C7800
1E3C78F0
1E3C78F0
1E3C78F0
1E3C78F0
01E00780
01E00780
01E00780
01E00780
00000000
00000000
00000000
ENDCHAR
STARTCHAR 885b
ENCODING 34907
SWIDTH 3360 0
DWIDTH 28 0
BBX 28 28 0 0
BITMAP
00000000
00000000
00000000
FE007800
FE007800
FE007800
FE007800
F1E07800
F1E07800
F1E07800
F1FC7800
F03C7800
F03C7800
F03C7800
F003FFF0
F003FFF0
F003FFF0
F03FFFF0
F03C7800
F03C7800
F03C7800
F1E07800
F1E07800
F1E07800
FFE07800
FE007800
FE007800
FE007800
ENDCHAR
STARTCHAR 8eca
ENCODING 36554
SWIDTH 3360 0
DWIDTH 28 0
BBX 28 28 0 0
BITMAP
01E00780
01E00780
01E00780
01FFFF80
01FFFF80
01FFFF80
01FFFF80
01E3C780
01E3C780
01E3C780
01E3C780
0003C000
0003C000
0003C000
0003C000
0003C000
0003C000
1E03C0F0
1E03C0F0
1E03C0F0
1E03C0F0
1FFFFFF0
1FFFFFF0
1FFFFFF0
1FFFFFF0
1E0000F0
1E0000F0
1E0000F0
ENDCHAR
STARTCHAR 9006
ENCODING 36870
SWIDTH 3360 0
DWIDTH 28 0
BBX 28 28 0 0
BITMAP
01E00780
01E00780
01E00780
01FC7F80
003C7800
003C7800
003C7800
0003C000
0003C000
0003C000
0003C000
0003C000
0003C000
0003C000
01FFFF80
01FFFF80
01FFFF80
01FFFF80
0003C000
0003C000
0003C000
003FF800
003FF800
003FF800
003FF800
003FF800
003FF800
003FF800
ENDCHAR
STARTCHAR 91d1
ENCODING 37329
SWIDTH 3360 0
DWIDTH 28 0
BBX 28 28 0 0
BITMAP
0003C000
0003C000
0003C000
003FF800
003C7800
003C7800
003C7800
01FFFF80
01FFFF80
01FFFF80
1FFFFFF0
1E03C0F0
1E03C0F0
1E03C0F0
01FFFF80
01FFFF80
01FFFF80
01FFFF80
003FF800
003FF800
003FF800
1FFFFFF0
1FFFFFF0
1FFFFFF0
1FFFFFF0
00000000
00000000
00000000
ENDCHAR
STARTCHAR 96fb
ENCODING 38651
SWIDTH 3360 0
DWIDTH 28 0
BBX 28 28 0 0
BITMAP
00000000
00000000
00000000
00000000
00000000
00000000
00000000
01E07800
01E07800
01E07800
01E07800
01E07800
01E07800
01E07800
FFE07FF0
FFE07FF0
FFE07FF0
FFE07FF0
01E07800
01E07800
01E07800
01E07800
01E07800
01E07800
01E07800
00000000
00000000
00000000
ENDCHAR
STARTCHAR ff01
ENCODING 65281
SWIDTH 3360 0
DWIDTH 28 0
BBX 28 28 0 0
BITMAP
0003C000
0003C000
0003C000
003FC000
003C0000
003C0000
003C0000
01E00000
01E00000
01E00000
01FC0000
003C0000
003C0000
003C0000
0003C000
0003C000
0003C000
0003F800
00007800
00007800
00007800
00000780
00000780
00000780
00007F80
00007800
00007800
00007800
ENDCHAR
STARTCHAR ff0c
ENCODING 65292
SWIDTH 3360 0
DWIDTH 28 0
BBX 28 28 0 0
BITMAP
00000000
00000000
00000000
00000000
00000000
00000000
00000000
00000000
00000000
00000000
00000000
00000000
00000000
00000000
00000000
00000000
00000000
1E000000
1E000000
1E000000
1E000000
01E00000
01E00000
01E00000
01FC0000
003C0000
003C0000
003C0000
ENDCHAR
STARTCHAR ff0e
ENCODING 65294
SWIDTH 3360 0
DWIDTH 28 0
BBX 28 28 0 0
BITMAP
00000000
00000000
00000000
00000000
00000000
00000000
00000000
00000000
00000000
00000000
00000000
00000000
00000000
00000000
00000000
00000000
00000000
00000000
00000000
00000000
00000000
01E00000
01E00000
01E00000
01E00000
00000000
00000000
00000000
ENDCHAR
STARTCHAR ff0f
ENCODING 65295
SWIDTH 3360 0
DWIDTH 28 0
BBX 28 28 0 0
BITMAP
000000F0
000000F0
000000F0
000007F0
00000780
00000780
00000780
00007800
00007800
00007800
0003F800
0003C000
0003C000
0003C000
003C0000
003C0000
003C0000
01FC0000
01E00000
01E00000
01E00000
1E000000
1E000000
1E000000
FE000000
F0000000
F0000000
F0000000
ENDCHAR
STARTCHAR ff11
ENCODING 65297
SWIDTH 3360 0
DWIDTH 28 0
BBX 28 28 0 0
BITMAP
00000000
00000000
00000000
00000000
00000000
00000000
00000000
00000000
00000000
00000000
00000000
00000000
00000000
00000000
00000000
00000000
00000000
00000000
00000000
00000000
00000000
FFFFFFF0
FFFFFFF0
FFFFFFF0
FFFFFFF0
00000000
00000000
00000000
ENDCHAR
STARTCHAR ff12
ENCODING 65298
SWIDTH 3360 0
DWIDTH 28 0
BBX 28 28 0 0
BITMAP
00000000
00000000
00000000
00000000
00000000
00000000
00000000
00000000
00000000
00000000
00000000
00000000
00000000
00000000
00000000
00000000
00000000
FFFFFFF0
FFFFFFF0
FFFFFFF0
FFFFFFF0
00000000
00000000
00000000
00000000
00000000
00000000
00000000
ENDCHAR
STARTCHAR ff13
ENCODING 65299
SWIDTH 3360 0
DWIDTH 28 0
BBX 28 28 0 0
BITMAP
00000000
00000000
00000000
00000000
00000000
00000000
00000000
00000000
00000000
00000000
FFFFFFF0
FFFFFFF0
FFFFFFF0
FFFFFFF0
00000000
00000000
00000000
00000000
00000000
00000000
00000000
00000000
00000000
00000000
00000000
00000000
00000000
00000000
ENDCHAR
STARTCHAR ff14
ENCODING 65300
SWIDTH 3360 0
DWIDTH 28 0
BBX 28 28 0 0
BITMAP
00000000
00000000
00000000
00000000
00000000
00000000
00000000
FFFFFFF0
FFFFFFF0
FFFFFFF0
FFFFFFF0
00000000
00000000
00000000
00000000
00000000
00000000
00000000
00000000
00000000
00000000
00000000
00000000
00000000
00000000
00000000
00000000
00000000
ENDCHAR
STARTCHAR ff15
ENCODING 65301
SWIDTH 3360 0
DWIDTH 28 0
BBX 28 28 0 0
BITMAP
00000000
00000000
00000000
FFFFFFF0
FFFFFFF0
FFFFFFF0
FFFFFFF0
00000000
00000000
00000000
00000000
00000000
00000000
00000000
00000000
00000000
00000000
00000000
00000000
00000000
00000000
00000000
00000000
00000000
00000000
00000000
00000000
00000000
ENDCHAR
STARTCHAR ff1c
ENCODING 65308
SWIDTH 3360 0
DWIDTH 28 0
BBX 28 28 0 0
BITMAP
00000000
00000000
00000000
1FFC0000
1FFC0000
1FFC0000
1FFC0000
F003C000
F003C000
F003C000
FE03F800
1E007800
1E007800
1E007800
01E007F0
01E007F0
01E007F0
01E007F0
01E00000
01E00000
01E00000
1E000000
1E000000
1E000000
FE000000
F0000000
F0000000
F0000000
ENDCHAR
STARTCHAR ff1d
ENCODING 65309
SWIDTH 3360 0
DWIDTH 28 0
BBX 28 28 0 0
BITMAP
00000000
00000000
00000000
FFFFFFF0
FFFFFFF0
FFFFFFF0
FFFFFFF0
00000000
00000000
00000000
F00000F0
F00000F0
F00000F0
F00000F0
1E000780
1E000780
1E000780
1E000780
1E000780
1E000780
1E000780
F00000F0
F00000F0
F00000F0
F00000F0
00000000
00000000
00000000
ENDCHAR
STARTCHAR ff1e
ENCODING 65310
SWIDTH 3360 0
DWIDTH 28 0
BBX 28 28 0 0
BITMAP
00000000
00000000
00000000
0003FF80
0003FF80
0003FF80
0003FF80
003C00F0
003C00F0
003C00F0
01FC07F0
01E00780
01E00780
01E00780
FE007800
FE007800
FE007800
FE007800
00007800
00007800
00007800
00000780
00000780
00000780
000007F0
000000F0
000000F0
000000F0
ENDCHAR
STARTCHAR ff39
ENCODING 65337
SWIDTH 3360 0
DWIDTH 28 0
BBX 28 28 0 0
BITMAP
F0000000
F0000000
F0000000
FE000000
1E000000
1E000000
1E000000
01E00000
01E00000
01E00000
01FC0000
003C0000
003C0000
003C0000
003FFFF0
003FFFF0
003FFFF0
01FFFFF0
01E00000
01E00000
01E00000
1E000000
1E000000
1E000000
FE000000
F0000000
F0000000
F0000000
ENDCHAR
STARTCHAR ff3c
ENCODING 65340
SWIDTH 3360 0
DWIDTH 28 0
BBX 28 28 0 0
BITMAP
F0000000
F0000000
F0000000
FE000000
1E000000
1E000000
1E000000
01E00000
01E00000
01E00000
01FC0000
003C0000
003C0000
003C0000
0003C000
0003C000
0003C000
0003F800
00007800
00007800
00007800
00000780
00000780
00000780
000007F0
000000F0
000000F0
000000F0
ENDCHAR
STARTCHAR ffe1
ENCODING 65505
SWIDTH 3360 0
DWIDTH 28 0
BBX 28 28 0 0
BITMAP
0003F800
0003F800
0003F800
003FFF80
003C0780
003C0780
003C0780
003C0000
003C0000
003C0000
01FFC000
01FFC000
01FFC000
01FFC000
003C0000
003C0000
003C0000
003C0000
003C0000
003C0000
003C0000
01FFFF80
01FFFF80
01FFFF80
01FFFF80
00000000
00000000
00000000
ENDCHAR
STARTCHAR ffe3
ENCODING 65507
SWIDTH 3360 0
DWIDTH 28 0
BBX 28 28 0 0
BITMAP
FFFFFFF0
FFFFFFF0
FFFFFFF0
FFFFFFF0
00000000
00000000
00000000
00000000
00000000
00000000
00000000
00000000
00000000
00000000
00000000
00000000
00000000
00000000
00000000
00000000
00000000
00000000
00000000
00000000
00000000
00000000
00000000
00000000
ENDCHAR
STARTCHAR ffe5
ENCODING 65509
SWIDTH 3360 0
DWIDTH 28 0
BBX 28 28 0 0
BITMAP
01E00780
01E00780
01E00780
01FC7F80
003C7800
003C7800
003C7800
01FFFF80
01FFFF80
01FFFF80
01FFFF80
0003C000
0003C000
0003C000
01FFFF80
01FFFF80
01FFFF80
01FFFF80
0003C000
0003C000
0003C000
0003C000
0003C000
0003C000
0003C000
00000000
00000000
00000000
ENDCHAR
ENDFONT
